<?xml version="1.0" encoding="UTF-8" standalone="no"?>
<svg width="451px" height="91px" viewBox="0 0 451 91" version="1.1" xmlns="http://www.w3.org/2000/svg" xmlns:xlink="http://www.w3.org/1999/xlink" xmlns:sketch="http://www.bohemiancoding.com/sketch/ns">
    <!-- Generator: Sketch 3.0.4 (8053) - http://www.bohemiancoding.com/sketch -->
    <title>Slice 2</title>
    <desc>Created with Sketch.</desc>
    <defs></defs>
    <g id="Page-1" stroke="none" stroke-width="1" fill="none" fill-rule="evenodd" sketch:type="MSPage">
        <g id="Amazon-logo" sketch:type="MSLayerGroup" transform="translate(5.000000, 0.000000)">
            <g id="Group" sketch:type="MSShapeGroup">
                <g transform="translate(40.000000, 52.000000)" id="Shape" fill="#FF9900">
                    <path d="M136.222,15.414 C119.673,27.627 95.679,34.123 75.019,34.123 C46.062,34.123 19.988,23.42 0.254,5.602 C-1.295,4.204 0.087,2.291 1.949,3.375 C23.238,15.764 49.564,23.225 76.757,23.225 C95.1,23.225 115.264,19.418 133.817,11.549 C136.615,10.361 138.961,13.393 136.222,15.414 L136.222,15.414 Z"></path>
                    <path d="M143.109,7.553 C140.992,4.842 129.116,6.268 123.781,6.907 C122.166,7.1 121.915,5.69 123.372,4.667 C132.845,-1.987 148.367,-0.065 150.171,2.161 C151.989,4.409 149.695,19.972 140.817,27.399 C139.452,28.542 138.153,27.932 138.758,26.422 C140.755,21.434 145.228,10.264 143.109,7.553 L143.109,7.553 Z"></path>
                </g>
                <g fill="#000000">
                    <path d="M164.158,9.661 L164.158,3.196 C164.162,2.212 164.903,1.556 165.797,1.558 L194.775,1.555 C195.702,1.555 196.445,2.23 196.447,3.188 L196.445,8.733 C196.438,9.663 195.655,10.877 194.263,12.803 L179.253,34.234 C184.825,34.103 190.719,34.937 195.781,37.783 C196.923,38.424 197.228,39.375 197.318,40.307 L197.318,47.205 C197.318,48.156 196.278,49.256 195.185,48.684 C186.265,44.012 174.429,43.501 164.567,48.741 C163.559,49.278 162.505,48.194 162.505,47.243 L162.505,40.685 C162.505,39.636 162.525,37.841 163.583,36.241 L180.974,11.292 L165.832,11.289 C164.906,11.289 164.164,10.629 164.158,9.661 L164.158,9.661 Z" id="Shape"></path>
                    <path d="M58.454,50.043 L49.639,50.043 C48.8,49.988 48.129,49.357 48.062,48.553 L48.068,3.306 C48.068,2.401 48.83,1.677 49.769,1.677 L57.979,1.675 C58.838,1.719 59.528,2.369 59.583,3.195 L59.583,9.102 L59.748,9.102 C61.888,3.389 65.92,0.723 71.351,0.723 C76.865,0.723 80.321,3.389 82.79,9.102 C84.929,3.389 89.784,0.723 94.969,0.723 C98.672,0.723 102.704,2.246 105.173,5.674 C107.971,9.483 107.396,15.005 107.396,19.861 L107.389,48.414 C107.389,49.318 106.627,50.043 105.689,50.043 L96.883,50.043 C95.998,49.986 95.3,49.285 95.3,48.418 L95.298,24.431 C95.298,22.527 95.463,17.766 95.051,15.956 C94.393,12.91 92.418,12.053 89.867,12.053 C87.727,12.053 85.505,13.481 84.599,15.766 C83.693,18.051 83.777,21.859 83.777,24.431 L83.777,48.414 C83.777,49.318 83.015,50.043 82.077,50.043 L73.271,50.043 C72.386,49.986 71.688,49.285 71.688,48.418 L71.679,24.431 C71.679,19.385 72.502,11.958 66.248,11.958 C59.911,11.958 60.158,19.194 60.158,24.431 L60.154,48.414 C60.155,49.318 59.394,50.043 58.454,50.043 L58.454,50.043 Z" id="Shape"></path>
                    <path d="M221.392,0.723 C234.477,0.723 241.553,11.958 241.553,26.24 C241.553,40.046 233.737,50.996 221.392,50.996 C208.554,50.996 201.559,39.76 201.559,25.764 C201.559,11.672 208.636,0.723 221.392,0.723 L221.392,0.723 Z M221.474,9.958 C214.972,9.958 214.561,18.812 214.561,24.335 C214.561,29.858 214.479,41.664 221.392,41.664 C228.223,41.664 228.551,32.143 228.551,26.335 C228.551,22.526 228.387,17.956 227.235,14.338 C226.246,11.196 224.271,9.958 221.474,9.958 L221.474,9.958 Z" id="Shape"></path>
                    <path d="M258.521,50.043 L249.738,50.043 C248.855,49.986 248.156,49.285 248.156,48.418 L248.142,3.154 C248.216,2.327 248.947,1.677 249.835,1.677 L258.013,1.675 C258.783,1.715 259.417,2.24 259.579,2.943 L259.579,9.864 L259.745,9.864 C262.214,3.675 265.669,0.723 271.759,0.723 C275.708,0.723 279.577,2.151 282.046,6.055 C284.351,9.673 284.351,15.767 284.351,20.147 L284.351,48.618 C284.251,49.421 283.533,50.044 282.662,50.044 L273.824,50.044 C273.008,49.991 272.349,49.392 272.254,48.618 L272.254,24.05 C272.254,19.099 272.83,11.862 266.74,11.862 C264.599,11.862 262.625,13.29 261.638,15.48 C260.404,18.241 260.238,21.002 260.238,24.049 L260.238,48.413 C260.223,49.318 259.461,50.043 258.521,50.043 L258.521,50.043 Z" id="Shape"></path>
                    <ellipse id="Oval" cx="294.339" cy="46.123" rx="4.339" ry="4.123"></ellipse>
                    <path d="M383.279,50.055 C382.365,50.028 381.634,49.315 381.634,48.428 L381.634,3.176 C381.696,2.378 382.37,1.742 383.212,1.688 L386.448,1.687 C387.339,1.687 388.069,2.338 388.141,3.177 L388.141,9.775 C390.442,4.546 394.729,0.45 400.149,0.45 L400.489,0.455 L400.815,0.45 C406.563,0.45 410.77,4.692 412.333,10.853 C414.769,4.77 419.358,0.45 425.411,0.45 L425.725,0.455 L426.079,0.45 C430.356,0.45 434.472,3.211 436.612,7.401 C438.669,11.4 438.587,16.732 438.587,21.207 L438.585,48.431 C438.587,49.298 437.888,49.999 437.003,50.056 L433.13,50.056 C432.296,50.031 431.612,49.433 431.501,48.652 L431.501,21.208 C431.501,17.971 431.665,14.543 430.349,11.591 C429.003,8.57 426.441,6.693 423.685,6.553 C420.607,6.706 417.783,8.94 415.956,11.971 C413.569,15.875 413.653,19.398 413.653,23.968 L413.653,48.667 C413.544,49.417 412.891,50.003 412.085,50.056 L408.231,50.056 C407.317,50.029 406.585,49.316 406.585,48.429 L406.567,19.398 C406.567,16.732 406.403,13.59 405.169,11.21 C403.747,8.471 401.192,6.695 398.517,6.554 C395.742,6.709 392.933,8.831 391.269,11.306 C389.13,14.448 388.718,18.351 388.718,22.35 L388.716,48.431 C388.716,49.298 388.017,49.999 387.134,50.056 L383.279,50.056 L383.279,50.055 Z" id="Shape"></path>
                    <path d="M356.713,51.008 C344.205,51.008 338.609,38.249 338.609,25.491 C338.609,12.066 345.193,0.45 357.783,0.45 L358.107,0.453 L358.449,0.45 C370.711,0.45 376.801,12.827 376.801,25.586 C376.801,39.107 370.053,51.008 357.379,51.008 L357.055,51.004 L356.713,51.008 L356.713,51.008 Z M357.635,44.812 C361.75,44.677 364.996,42.129 366.918,37.868 C368.645,34.059 368.975,29.68 368.975,25.491 C368.975,20.921 368.481,16.16 366.342,12.256 C364.426,8.841 361.121,6.679 357.621,6.549 C353.725,6.692 350.252,9.325 348.492,13.398 C346.93,16.921 346.435,21.586 346.435,25.49 C346.435,29.869 347.011,34.916 348.822,38.724 C350.58,42.333 353.973,44.684 357.635,44.812 L357.635,44.812 Z" id="Shape"></path>
                    <path d="M317.625,44.623 C323.24,44.447 326.187,39.947 327.412,34.113 C327.65,33.386 328.209,32.826 329.027,32.826 L332.742,32.81 C333.617,32.856 334.422,33.526 334.355,34.343 C332.64,44.266 326.65,51.008 318.113,51.008 L317.769,51.004 L317.447,51.008 C305.021,51.008 299.672,38.535 299.672,25.872 C299.672,13.304 305.104,0.45 317.529,0.45 L317.857,0.453 L318.195,0.45 C326.818,0.45 332.972,7.095 334.308,17.024 C334.308,17.769 333.617,18.414 332.806,18.508 L328.913,18.463 C328.104,18.347 327.569,17.645 327.448,16.864 C326.51,11.321 323.327,6.914 318.022,6.739 C309.573,7.009 307.168,17.407 307.168,25.395 C307.17,33.105 309.176,44.344 317.625,44.623 L317.625,44.623 Z" id="Shape"></path>
                    <path d="M141.058,28.435 C141.058,31.871 141.14,34.733 139.409,37.787 C138.007,40.268 135.78,41.795 133.305,41.795 C129.924,41.795 127.945,39.218 127.945,35.401 C127.945,27.893 134.68,26.527 141.058,26.527 L141.058,28.435 L141.058,28.435 Z M149.945,49.93 C149.361,50.453 148.52,50.489 147.862,50.135 C144.934,47.701 144.41,46.576 142.809,44.26 C137.969,49.19 134.541,50.668 128.274,50.668 C120.852,50.668 115.079,46.088 115.079,36.928 C115.079,29.771 118.955,24.905 124.48,22.519 C129.263,20.419 135.944,20.038 141.057,19.465 L141.057,18.32 C141.057,16.221 141.222,13.739 139.985,11.927 C138.913,10.304 136.851,9.636 135.037,9.636 C131.675,9.636 128.685,11.359 127.951,14.93 C127.799,15.724 127.219,16.51 126.42,16.551 L117.875,15.626 C117.153,15.463 116.352,14.885 116.56,13.783 C118.524,3.416 127.885,0.284 136.275,0.284 C140.563,0.284 146.171,1.429 149.552,4.674 C153.841,8.682 153.428,14.026 153.428,19.846 L153.428,33.581 C153.428,37.712 155.145,39.525 156.756,41.751 C157.318,42.553 157.445,43.507 156.727,44.092 C154.926,45.602 151.727,48.381 149.966,49.947 L149.945,49.93 L149.945,49.93 Z" id="Shape"></path>
                    <path d="M25.488,28.435 C25.488,31.871 25.571,34.733 23.839,37.787 C22.438,40.268 20.211,41.795 17.736,41.795 C14.355,41.795 12.376,39.218 12.376,35.401 C12.376,27.893 19.111,26.527 25.488,26.527 L25.488,28.435 L25.488,28.435 Z M34.377,49.93 C33.793,50.453 32.951,50.489 32.294,50.135 C29.365,47.701 28.841,46.576 27.24,44.26 C22.401,49.19 18.973,50.668 12.706,50.668 C5.283,50.668 -0.489,46.088 -0.489,36.928 C-0.489,29.771 3.387,24.905 8.912,22.519 C13.695,20.419 20.376,20.038 25.488,19.465 L25.488,18.32 C25.488,16.221 25.653,13.739 24.417,11.927 C23.345,10.304 21.282,9.636 19.469,9.636 C16.107,9.636 13.116,11.359 12.383,14.93 C12.23,15.724 11.651,16.51 10.851,16.551 L2.307,15.626 C1.585,15.463 0.783,14.885 0.992,13.783 C2.955,3.416 12.316,0.284 20.706,0.284 C24.995,0.284 30.602,1.429 33.984,4.674 C38.272,8.682 37.86,14.026 37.86,19.846 L37.86,33.581 C37.86,37.712 39.576,39.525 41.187,41.751 C41.749,42.553 41.876,43.507 41.159,44.092 C39.358,45.602 36.158,48.381 34.398,49.947 L34.377,49.93 L34.377,49.93 Z" id="Shape"></path>
                </g>
            </g>
        </g>
    </g>
</svg>