<?xml version="1.0" encoding="UTF-8" standalone="no"?>
<svg width="181px" height="47px" viewBox="0 0 181 47" version="1.1" xmlns="http://www.w3.org/2000/svg" xmlns:xlink="http://www.w3.org/1999/xlink" xmlns:sketch="http://www.bohemiancoding.com/sketch/ns">
    <!-- Generator: Sketch 3.0.4 (8053) - http://www.bohemiancoding.com/sketch -->
    <title>Untitled 2</title>
    <desc>Created with Sketch.</desc>
    <defs></defs>
    <g id="Page-1" stroke="none" stroke-width="1" fill="none" fill-rule="evenodd" sketch:type="MSPage">
        <g id="barnes-and-noble-logo" sketch:type="MSLayerGroup" transform="translate(3.000000, 0.000000)">
            <g id="Page-1" sketch:type="MSShapeGroup">
                <g id="Barnes__and__Noble">
                    <path d="M11.31,19.421 C11.31,24.656 8.971,26.548 5.073,26.548 L-0.496,26.548 L-0.496,1.601 L5.073,1.601 C9.416,1.601 10.53,4.163 10.53,8.395 C10.53,11.514 9.416,13.184 7.523,13.295 C9.639,13.296 11.31,15.412 11.31,19.421 L11.31,19.421 L11.31,19.421 Z M3.848,14.744 L3.848,23.543 L4.962,23.543 C6.298,23.543 6.632,22.762 6.632,18.976 C6.632,16.192 6.298,14.744 4.85,14.744 L3.848,14.744 L3.848,14.744 Z M3.848,4.498 L3.848,11.737 L4.962,11.737 C6.076,11.737 6.298,10.623 6.298,8.507 C6.298,5.611 6.075,4.498 4.628,4.498 L3.848,4.498 L3.848,4.498 Z" id="Shape" fill="#59766C"></path>
                    <path d="M35.923,13.741 C38.707,14.521 39.041,17.862 39.041,20.869 C39.041,23.209 39.152,25.324 39.487,26.549 L34.921,26.549 C34.81,25.547 34.587,25.102 34.587,22.762 L34.587,19.644 C34.587,17.64 33.919,16.192 32.471,15.746 L32.248,15.746 L32.248,26.549 L27.682,26.549 L27.682,1.602 L34.364,1.602 C37.483,1.602 39.599,3.384 39.599,7.95 C39.599,11.848 37.928,13.519 35.923,13.741 L35.923,13.741 L35.923,13.741 Z M32.248,4.72 L32.248,11.959 L33.584,11.959 C34.698,11.959 35.032,11.179 35.032,8.952 C35.032,5.277 34.364,4.72 33.028,4.72 L32.248,4.72 L32.248,4.72 Z" id="Shape" fill="#59766C"></path>
                    <path d="M47.172,12.962 C47.395,16.303 47.395,17.194 47.395,20.201 L47.395,26.549 L43.274,26.549 L43.274,1.602 L47.395,1.602 C47.395,1.602 49.289,8.953 49.734,10.512 C50.18,12.071 50.514,13.296 50.736,14.41 C50.625,11.96 50.513,8.952 50.513,6.502 L50.513,1.602 L54.523,1.602 L54.523,26.549 L50.847,26.549 C50.847,26.549 48.62,18.864 48.174,17.305 C47.84,16.08 47.506,14.744 47.172,12.962 L47.172,12.962 L47.172,12.962 Z" id="Shape" fill="#59766C"></path>
                    <path d="M62.875,22.762 L68.333,22.762 L68.333,26.549 L58.532,26.549 L58.532,1.602 L67.665,1.602 L67.665,5.388 L62.875,5.388 L62.875,12.071 L67.108,12.071 L67.108,15.523 L62.875,15.523 L62.875,22.762 L62.875,22.762 Z" id="Shape" fill="#59766C"></path>
                    <path d="M74.793,20.758 C74.793,23.543 75.461,23.988 76.463,23.988 C77.243,23.988 77.799,23.543 77.799,20.758 C77.799,18.308 76.129,16.526 74.346,14.299 C72.564,12.294 70.671,9.51 70.671,7.171 C70.671,3.384 72.453,1.268 75.905,1.268 C79.358,1.268 81.251,3.161 81.251,6.837 C81.251,7.616 81.028,8.285 80.917,8.841 L77.242,8.841 C77.242,8.396 77.353,7.839 77.353,7.059 C77.353,4.72 77.019,3.94 76.017,3.94 C75.015,3.94 74.903,4.942 74.903,6.724 C74.903,8.952 76.685,10.734 78.132,12.627 C80.248,15.3 81.919,17.417 81.919,19.978 C81.919,23.988 80.248,26.994 76.35,26.994 C73.009,26.994 70.781,25.213 70.781,20.869 C70.781,19.867 70.781,18.976 71.004,18.196 L75.014,18.085 C74.904,19.087 74.793,19.644 74.793,20.758 L74.793,20.758 L74.793,20.758 Z" id="Shape" fill="#59766C"></path>
                    <path d="M112.549,12.962 C112.772,16.303 112.772,17.194 112.772,20.201 L112.772,26.549 L108.651,26.549 L108.651,1.602 L112.772,1.602 C112.772,1.602 114.666,8.953 115.111,10.512 C115.556,12.071 115.89,13.296 116.002,14.41 C115.891,11.96 115.891,8.952 115.891,6.502 L115.891,1.602 L119.901,1.602 L119.901,26.549 L116.225,26.549 C116.225,26.549 113.997,18.864 113.552,17.305 C113.217,16.08 112.883,14.744 112.549,12.962 L112.549,12.962 L112.549,12.962 Z" id="Shape" fill="#59766C"></path>
                    <path d="M134.935,14.076 C134.935,24.768 133.153,26.994 129.032,26.994 C125.246,26.994 123.241,25.324 123.241,14.076 C123.241,3.161 124.801,1.268 129.032,1.268 C133.376,1.268 134.935,3.161 134.935,14.076 L134.935,14.076 L134.935,14.076 Z M130.257,14.076 C130.257,10.178 130.257,7.727 130.146,5.946 C130.035,4.164 129.701,3.83 129.032,3.83 C128.364,3.83 128.03,4.164 127.919,5.946 C127.808,7.728 127.808,10.178 127.808,14.076 C127.808,18.642 127.808,20.424 127.919,22.094 C128.03,23.989 128.364,24.211 129.032,24.211 C129.812,24.211 130.035,24.1 130.146,22.094 C130.257,20.312 130.257,18.642 130.257,14.076 L130.257,14.076 L130.257,14.076 Z" id="Shape" fill="#59766C"></path>
                    <path d="M150.081,19.421 C150.081,24.656 147.742,26.548 143.845,26.548 L138.276,26.548 L138.276,1.601 L143.845,1.601 C148.189,1.601 149.302,4.163 149.302,8.395 C149.302,11.514 148.189,13.184 146.295,13.295 C148.411,13.296 150.081,15.412 150.081,19.421 L150.081,19.421 L150.081,19.421 Z M142.619,14.744 L142.619,23.543 L143.733,23.543 C145.069,23.543 145.404,22.762 145.404,18.976 C145.404,16.192 145.069,14.744 143.622,14.744 L142.619,14.744 L142.619,14.744 Z M142.619,4.498 L142.619,11.737 L143.733,11.737 C144.846,11.737 145.069,10.623 145.069,8.507 C145.069,5.611 144.735,4.498 143.399,4.498 L142.619,4.498 L142.619,4.498 Z" id="Shape" fill="#59766C"></path>
                    <path d="M157.767,22.762 L163.001,22.762 L163.001,26.549 L153.2,26.549 L153.2,1.602 L157.767,1.602 L157.767,22.762 L157.767,22.762 Z" id="Shape" fill="#59766C"></path>
                    <path d="M169.795,22.762 L175.252,22.762 L175.252,26.549 L165.451,26.549 L165.451,1.602 L174.584,1.602 L174.584,5.388 L169.795,5.388 L169.795,12.071 L174.027,12.071 L174.027,15.523 L169.795,15.523 L169.795,22.762 L169.795,22.762 Z" id="Shape" fill="#59766C"></path>
                    <path d="M12.98,26.549 L16.544,1.49 L20.888,1.49 L25.12,26.549 L20.442,26.549 L19.996,22.539 L17.212,22.539 L16.767,26.549 L12.98,26.549 L12.98,26.549 Z M17.546,19.756 L19.774,19.756 C19.774,19.756 19.44,16.86 19.217,14.966 C19.106,13.853 18.66,10.177 18.549,7.838 C18.438,10.288 18.104,13.853 17.992,14.966 C17.881,16.86 17.546,19.756 17.546,19.756 L17.546,19.756 L17.546,19.756 Z" id="Shape" fill="#59766C"></path>
                    <path d="M28.238,41.473 C28.238,42.922 27.013,44.035 25.12,44.035 L19.44,44.035 L19.44,43.59 C20.776,43.59 20.888,43.367 20.888,41.807 L20.888,37.018 C20.888,35.459 20.777,35.237 19.44,35.237 L19.44,34.792 L24.674,34.792 C26.456,34.792 27.459,35.794 27.459,37.019 C27.459,37.912 27.125,38.58 26.345,39.025 C27.57,39.357 28.238,40.359 28.238,41.473 L28.238,41.473 L28.238,41.473 Z M26.234,41.361 C26.234,40.359 25.566,39.468 24.229,39.468 L22.893,39.468 L22.893,41.583 C22.893,43.144 23.004,43.366 24.341,43.366 L24.23,43.366 C25.565,43.367 26.234,42.477 26.234,41.361 L26.234,41.361 L26.234,41.361 Z M22.893,38.801 L23.673,38.801 C24.898,38.801 25.455,38.022 25.455,37.129 C25.455,36.238 24.898,35.459 23.673,35.459 L22.893,35.459 L22.893,38.801 L22.893,38.801 Z" id="Shape" fill="#D07029"></path>
                    <path d="M36.592,44.258 C33.696,44.258 31.357,42.143 31.357,39.358 C31.357,36.684 33.696,34.458 36.592,34.458 C39.376,34.458 41.715,36.685 41.715,39.358 C41.715,42.143 39.376,44.258 36.592,44.258 L36.592,44.258 L36.592,44.258 Z M36.592,35.236 C34.364,35.236 33.473,37.576 33.473,39.357 C33.473,41.25 34.364,43.589 36.592,43.589 C38.708,43.589 39.599,41.249 39.599,39.357 C39.599,37.576 38.708,35.236 36.592,35.236 L36.592,35.236 L36.592,35.236 Z" id="Shape" fill="#D07029"></path>
                    <path d="M50.402,44.258 C47.618,44.258 45.279,42.143 45.279,39.358 C45.279,36.684 47.618,34.458 50.402,34.458 C53.298,34.458 55.525,36.685 55.525,39.358 C55.525,42.143 53.298,44.258 50.402,44.258 L50.402,44.258 L50.402,44.258 Z M50.402,35.236 C48.174,35.236 47.283,37.576 47.283,39.357 C47.283,41.25 48.174,43.589 50.402,43.589 C52.63,43.589 53.521,41.249 53.521,39.357 C53.521,37.576 52.629,35.236 50.402,35.236 L50.402,35.236 L50.402,35.236 Z" id="Shape" fill="#D07029"></path>
                    <path d="M68.556,42.699 C69.113,43.256 70.116,43.59 70.561,43.59 L70.561,44.035 L65.438,44.035 L65.438,43.59 C66.218,43.59 66.551,43.367 65.995,42.699 L62.876,39.357 L62.208,39.914 L62.208,41.807 C62.208,43.368 62.431,43.59 63.767,43.59 L63.767,44.035 L58.867,44.035 L58.867,43.59 C60.092,43.59 60.315,43.367 60.315,41.807 L60.315,37.018 C60.315,35.459 60.092,35.237 58.867,35.237 L58.867,34.792 L63.767,34.792 L63.767,35.237 C62.431,35.237 62.208,35.46 62.208,37.018 L62.208,39.135 L65.549,36.461 C65.883,36.127 66.885,35.236 65.549,35.236 L65.549,34.791 L69.336,34.791 L69.336,35.236 C68,35.236 67.442,35.681 66.44,36.461 L64.212,38.244 L68.556,42.699 L68.556,42.699 Z" id="Shape" fill="#D07029"></path>
                    <path d="M74.458,44.258 L74.013,44.258 L74.013,40.916 L74.458,40.916 C74.792,42.588 76.018,43.59 77.354,43.59 C78.245,43.59 78.913,43.145 78.913,42.029 C78.913,41.472 78.468,40.916 77.688,40.47 L76.24,39.691 C74.904,39.023 74.124,38.355 74.124,36.795 C74.124,35.57 75.349,34.457 76.797,34.457 C77.799,34.457 78.245,34.791 78.691,35.125 C78.914,35.014 79.136,34.791 79.136,34.457 L79.582,34.457 L79.582,37.799 L79.136,37.799 C79.025,36.572 78.579,35.125 76.908,35.125 C76.351,35.125 75.683,35.682 75.683,36.461 C75.683,36.906 76.129,37.576 76.908,38.022 L78.356,38.801 C79.47,39.358 80.36,40.248 80.36,41.473 C80.36,43.145 78.912,44.258 77.353,44.258 C76.128,44.258 75.348,43.701 74.903,43.59 C74.681,43.701 74.57,43.924 74.458,44.258 L74.458,44.258 L74.458,44.258 Z" id="Shape" fill="#D07029"></path>
                    <path d="M84.594,43.59 C85.93,43.59 86.153,43.367 86.153,41.807 L86.153,37.018 C86.153,35.459 85.93,35.237 84.594,35.237 L84.594,34.792 L92.613,34.792 L92.724,36.907 L92.279,36.907 L92.168,36.573 C91.945,35.794 91.834,35.46 90.386,35.46 L88.047,35.46 L88.047,38.802 L88.939,38.802 C90.498,38.802 90.72,38.579 90.72,37.241 L91.166,37.241 L91.166,40.917 L90.72,40.917 C90.72,39.692 90.497,39.47 88.939,39.47 L88.047,39.47 L88.047,41.585 C88.047,43.034 88.27,43.368 89.495,43.368 L90.943,43.368 C92.39,43.368 92.502,43.034 92.724,42.143 L92.835,41.807 L93.281,41.807 L93.17,44.036 L84.594,44.036 L84.594,43.59 L84.594,43.59 Z" id="Shape" fill="#D07029"></path>
                    <path d="M97.624,35.236 L97.624,34.791 L102.525,34.791 L102.525,35.236 C101.299,35.236 101.077,35.459 101.077,37.017 L101.077,41.583 C101.077,43.032 101.3,43.366 102.525,43.366 L104.306,43.366 C105.754,43.366 105.866,43.032 106.088,42.141 L106.199,41.805 L106.644,41.805 L106.533,44.034 L97.623,44.034 L97.623,43.589 C98.96,43.589 99.071,43.366 99.071,41.806 L99.071,37.017 C99.072,35.459 98.961,35.236 97.624,35.236 L97.624,35.236 L97.624,35.236 Z" id="Shape" fill="#D07029"></path>
                    <path d="M110.544,35.236 L110.544,34.791 L115.444,34.791 L115.444,35.236 C114.107,35.236 113.996,35.459 113.996,37.017 L113.996,41.583 C113.996,43.032 114.107,43.366 115.444,43.366 L117.226,43.366 C118.673,43.366 118.785,43.032 119.007,42.141 L119.118,41.805 L119.564,41.805 L119.453,44.034 L110.543,44.034 L110.543,43.589 C111.88,43.589 111.99,43.366 111.99,41.806 L111.99,37.017 C111.991,35.459 111.881,35.236 110.544,35.236 L110.544,35.236 L110.544,35.236 Z" id="Shape" fill="#D07029"></path>
                    <path d="M123.463,43.59 C124.689,43.59 124.911,43.367 124.911,41.807 L124.911,37.018 C124.911,35.459 124.688,35.237 123.463,35.237 L123.463,34.792 L131.371,34.792 L131.594,36.907 L131.149,36.907 L131.038,36.573 C130.814,35.794 130.592,35.46 129.256,35.46 L126.806,35.46 L126.806,38.802 L127.697,38.802 C129.257,38.802 129.479,38.579 129.479,37.241 L129.924,37.241 L129.924,40.917 L129.479,40.917 C129.479,39.692 129.256,39.47 127.697,39.47 L126.806,39.47 L126.806,41.585 C126.806,43.034 127.029,43.368 128.365,43.368 L129.702,43.368 C131.15,43.368 131.373,43.034 131.484,42.143 L131.595,41.807 L132.04,41.807 L131.929,44.036 L123.464,44.036 L123.464,43.59 L123.463,43.59 L123.463,43.59 Z" id="Shape" fill="#D07029"></path>
                    <path d="M143.511,41.584 C144.847,43.145 145.516,43.479 146.407,43.59 L146.407,44.035 L143.065,44.035 L140.281,39.914 L139.836,39.914 L139.836,41.807 C139.836,43.368 140.059,43.59 141.396,43.59 L141.396,44.035 L136.496,44.035 L136.496,43.59 C137.721,43.59 137.943,43.367 137.943,41.807 L137.943,37.018 C137.943,35.459 137.72,35.237 136.496,35.237 L136.496,34.792 L141.619,34.792 C143.513,34.792 144.737,35.905 144.737,37.353 C144.737,38.691 143.735,39.804 142.064,39.915 L143.511,41.584 L143.511,41.584 Z M142.73,37.352 C142.73,36.35 142.062,35.459 140.725,35.459 L139.834,35.459 L139.834,39.246 L140.725,39.246 C142.062,39.246 142.73,38.467 142.73,37.352 L142.73,37.352 L142.73,37.352 Z" id="Shape" fill="#D07029"></path>
                    <path d="M150.639,44.258 L150.194,44.258 L150.194,40.916 L150.639,40.916 C150.973,42.588 152.309,43.59 153.535,43.59 C154.426,43.59 155.095,43.145 155.095,42.029 C155.095,41.472 154.649,40.916 153.981,40.47 L152.421,39.691 C151.196,39.023 150.306,38.355 150.306,36.795 C150.306,35.57 151.531,34.457 153.09,34.457 C153.981,34.457 154.426,34.791 154.984,35.125 C155.095,35.014 155.318,34.791 155.429,34.457 L155.874,34.457 L155.874,37.799 L155.429,37.799 C155.318,36.572 154.76,35.125 153.201,35.125 C152.533,35.125 151.864,35.682 151.864,36.461 C151.864,36.906 152.309,37.576 153.09,38.022 L154.649,38.801 C155.763,39.358 156.654,40.248 156.654,41.473 C156.654,43.145 155.095,44.258 153.536,44.258 C152.31,44.258 151.642,43.701 151.086,43.59 C150.973,43.701 150.75,43.924 150.639,44.258 L150.639,44.258 L150.639,44.258 Z" id="Shape" fill="#D07029"></path>
                    <path d="M103.416,13.519 C101.634,13.519 100.409,14.633 99.629,16.304 C98.85,17.974 97.959,20.09 97.401,21.204 C95.508,17.863 94.06,15.302 93.17,12.963 C94.617,12.072 97.179,10.847 98.738,9.51 C100.186,8.174 100.854,6.837 101.188,5.389 C101.633,2.605 100.074,0.155 96.51,0.155 C93.503,0.155 89.939,2.494 89.271,6.392 C88.937,8.286 89.382,10.847 90.162,12.963 C87.489,14.745 85.15,16.75 84.482,19.868 C83.702,25.102 86.932,27.44 90.607,27.44 C93.058,27.44 94.951,26.327 96.51,24.657 C97.623,25.882 99.072,27.44 100.854,27.44 C102.301,27.44 103.861,26.549 105.085,24.991 L104.528,24.212 C103.415,25.325 102.635,25.771 101.966,25.771 C100.741,25.771 99.627,24.658 98.514,23.099 C98.403,22.763 98.291,22.54 98.18,22.318 C98.848,20.982 99.293,19.534 99.961,18.198 C101.075,15.748 101.743,14.857 102.746,14.857 C104.527,14.857 103.08,17.753 104.974,17.753 C105.865,17.753 106.31,17.085 106.421,16.306 C106.534,15.301 105.866,13.519 103.416,13.519 L103.416,13.519 L103.416,13.519 Z M92.278,5.723 C92.501,3.941 94.06,2.047 96.399,2.047 C98.181,2.047 99.406,3.384 98.961,5.5 C98.85,6.28 98.627,7.06 97.848,8.062 C96.956,9.064 94.061,10.847 92.724,11.626 C92.056,9.621 91.833,7.727 92.278,5.723 L92.278,5.723 L92.278,5.723 Z M91.61,25.77 C88.157,25.77 86.932,22.874 87.266,20.647 C87.712,17.863 89.048,16.192 90.718,14.633 C91.944,17.64 93.503,20.647 95.731,23.766 C94.506,25.213 93.393,25.77 91.61,25.77 Z M91.388,4.72 C91.388,4.72 89.049,8.395 92.39,15.635 C95.063,21.649 98.293,24.99 98.293,24.99 C98.293,24.99 95.063,20.535 92.835,15.189 C90.162,8.618 91.388,4.72 91.388,4.72 Z" id="Shape" fill="#D07029"></path>
                </g>
            </g>
        </g>
    </g>
</svg>