<?xml version="1.0" encoding="UTF-8" standalone="no"?>
<svg width="374px" height="125px" viewBox="0 0 374 125" version="1.1" xmlns="http://www.w3.org/2000/svg" xmlns:xlink="http://www.w3.org/1999/xlink" xmlns:sketch="http://www.bohemiancoding.com/sketch/ns">
    <!-- Generator: Sketch 3.0.4 (8053) - http://www.bohemiancoding.com/sketch -->
    <title>Untitled 3</title>
    <desc>Created with Sketch.</desc>
    <defs></defs>
    <g id="Page-1" stroke="none" stroke-width="1" fill="none" fill-rule="evenodd" sketch:type="MSPage">
        <g id="books-a-million-logo" sketch:type="MSLayerGroup" transform="translate(5.000000, 5.000000)" fill="#004A86">
            <g id="Page-1" sketch:type="MSShapeGroup">
                <g id="Books-a-Million-logo">
                    <g id="Page-1">
                        <g id="bam_logo_tag_pantone_books_a_million">
                            <g id="Group-24">
                                <g id="Fill-21-Clipped" transform="translate(0.000000, 104.000000)">
                                    <g id="Fill-21">
                                        <path d="M0,0.492 L342.867,0.492 L342.867,10.85 L0,10.85 L0,0.492 L0,0.492 Z"></path>
                                    </g>
                                </g>
                                <g id="Fill-23-Clipped" transform="translate(2.000000, 0.000000)">
                                    <g id="Fill-23">
                                        <path d="M270.793,59.363 L272.539,92.978 L302.776,92.978 L299.993,0.113 L297.673,0.113 L251.988,36.147 L206.459,0.113 L204.139,0.113 L201.354,92.978 L231.592,92.978 L233.337,59.363 L251.988,74.491 L270.793,59.363 L270.793,59.363 Z M353.809,4.861 C353.979,4.822 354.275,4.783 354.708,4.783 C355.739,4.783 356.208,5.21 356.208,5.838 C356.208,6.581 355.48,6.883 354.573,6.883 L353.809,6.883 L353.809,4.861 L353.809,4.861 Z M353.759,8.04 L354.532,8.04 C355.438,8.04 355.868,8.387 355.997,9.158 C356.208,9.969 356.337,10.569 356.549,10.83 L358.313,10.83 C358.142,10.613 358.012,10.186 357.799,9.118 C357.582,8.168 357.201,7.601 356.507,7.39 L356.507,7.303 C357.368,7.046 357.966,6.447 357.966,5.631 C357.966,4.991 357.668,4.423 357.28,4.136 C356.768,3.785 356.164,3.578 354.838,3.578 C353.674,3.578 352.775,3.707 352.133,3.834 L352.133,10.83 L353.759,10.83 L353.759,8.04 L353.759,8.04 Z M354.872,1.552 C358.012,1.552 360.289,4.091 360.289,7.173 C360.289,10.316 358.012,12.847 354.922,12.809 C351.74,12.809 349.426,10.316 349.426,7.173 C349.426,4.091 351.74,1.552 354.838,1.552 L354.872,1.552 L354.872,1.552 Z M354.872,0.136 C350.841,0.136 347.627,3.271 347.627,7.173 C347.627,11.166 350.841,14.26 354.872,14.26 C358.955,14.26 362.088,11.166 362.088,7.173 C362.088,3.271 358.955,0.136 354.922,0.136 L354.872,0.136 L354.872,0.136 Z M332.396,69.563 L343.004,0.126 L308.709,0.08 L319.115,69.563 L332.396,69.563 L332.396,69.563 Z M139.777,44.899 L147.842,62.387 L131.854,62.387 L139.777,44.899 L139.777,44.899 Z M117.959,92.973 L123.09,81.767 L156.588,81.767 L161.721,92.973 L196.025,92.973 L141.295,0.093 L138.38,0.093 L83.648,92.973 L117.959,92.973 L117.959,92.973 Z M31.833,72.913 L31.833,57.789 L42.227,57.789 C48.125,57.789 51.794,59.794 51.794,65.33 C51.794,71.482 48.125,72.913 42.227,72.913 L31.833,72.913 L31.833,72.913 Z M31.833,35.457 L31.833,20.337 L40.925,20.337 C46.834,20.337 50.48,22.361 50.48,27.907 C50.48,34.048 46.834,35.457 40.925,35.457 L31.833,35.457 L31.833,35.457 Z M79.665,11.138 C72.349,0.72 58.055,0.025 49.779,0.025 L0.052,0.025 L0.052,92.978 L51.558,92.978 C57.576,92.978 76.471,92.978 83.205,80.697 C86.646,74.671 86.646,64.755 83.089,58.37 C78.596,50.46 73.637,48.453 67.144,46.215 C75.181,43.502 79.776,40.549 82.616,31.912 C84.381,26.372 84.036,17.265 79.665,11.138 L79.665,11.138 L79.665,11.138 Z M335.354,85.201 C335.354,90.424 331.118,94.673 325.892,94.673 C320.647,94.673 316.417,90.424 316.417,85.201 C316.417,79.977 320.647,75.733 325.892,75.733 C331.118,75.733 335.354,79.977 335.354,85.201 L335.354,85.201 L335.354,85.201 Z"></path>
                                    </g>
                                </g>
                            </g>
                        </g>
                    </g>
                </g>
            </g>
        </g>
    </g>
</svg>