<?xml version="1.0" encoding="utf-8"?>
<!-- Generator: Adobe Illustrator 14.0.0, SVG Export Plug-In . SVG Version: 6.00 Build 43363)  -->
<!DOCTYPE svg PUBLIC "-//W3C//DTD SVG 1.1//EN" "http://www.w3.org/Graphics/SVG/1.1/DTD/svg11.dtd">
<svg version="1.1" id="Layer_1" xmlns="http://www.w3.org/2000/svg" xmlns:xlink="http://www.w3.org/1999/xlink" x="0px" y="0px"
	 width="423.357px" height="132.349px" viewBox="0 0 423.357 132.349" enable-background="new 0 0 423.357 132.349"
	 xml:space="preserve">
<g>
	<path fill="#5B5C5C" d="M30.104,46.374c0,2.001-5.046,7.917-5.046,12.094c0,1.74,0.87,3.828,2.958,3.828
		c3.132,0,8.701-4.524,13.921-13.747l0.87,0.87c-3.654,9.397-11.05,15.835-17.227,15.835c-4.263,0-6.265-3.045-6.265-6.09
		c0-0.696,0.087-1.566,0.261-2.523C14.53,63.34,10.702,66.733,6.438,66.733C2.784,66.733,0,64.384,0,59.512
		c0-10.354,12.79-26.71,24.101-26.71c4.524,0,7.917,2.61,7.917,6.525c0,2.871-1.74,3.741-4.263,3.741
		c0.261-0.957,0.435-2.088,0.435-3.045c0-2.61-1.131-4.872-4.263-4.872c-8.178,0-17.923,16.183-17.923,24.623
		c0,2.349,0.783,3.393,2.349,3.393c5.394,0,14.008-12.703,18.271-18.967C27.667,44.373,30.104,45.069,30.104,46.374z"/>
	<path fill="#5B5C5C" d="M43.152,40.632c0.696-0.783,2.349-1.827,4.002-1.827c1.566,0,2.349,0.87,2.349,2.262
		c0,1.827-1.218,6.7-2.784,11.485c4.611-7.047,11.485-15.313,18.098-15.313c4.524,0,6.438,3.916,6.438,7.831
		c0,5.395-3.567,9.484-3.567,13.747c0,2.436,1.131,3.306,2.61,3.306c4.351,0,8.962-7.135,12.181-13.573l0.957,1.131
		c-3.654,8.526-8.527,14.704-15.052,14.704c-4.089,0-6.09-2.349-6.09-5.568c0-3.567,2.523-8.004,2.523-12.094
		c0-3.219-1.479-4.263-3.48-4.263c-7.222,0-15.226,13.833-19.75,21.49c-1.827,0-3.654-0.609-4.611-1.914
		C36.975,60.991,43.065,48.201,43.152,40.632z"/>
	<path fill="#5B5C5C" d="M103.095,35.672c-9.135,0-17.488,12.442-17.488,19.75c0,2.784,1.218,4.264,3.045,4.264
		c3.306,0,8.439-5.133,12.877-11.485l1.044-4.611c0.348-1.653,1.566-4.438,4.438-4.438c0.522,0,1.131,0.087,1.827,0.261
		c0,2.871-2.697,13.486-6.7,23.839c5.656-2.697,11.572-8.091,14.182-14.704l1.131,0.87c-2.697,7.831-10.875,13.747-16.27,16.357
		c-4.872,11.746-14.284,44.152-28.763,42.841c-2.513-0.228-5.997-4.196-5.394-7.918c1.917-11.833,22.332-31.791,29.64-35.445
		c1.566-4.002,2.516-7.309,3.908-12.964c-4.438,6.351-9.31,11.137-14.182,11.137c-4.176,0-6.525-3.394-6.525-8.44
		c0-12.094,13.66-22.534,23.057-22.534c3.306,0,4.698,1.305,4.698,2.784c0,1.044-0.783,1.653-1.044,1.74
		C105.967,36.107,104.835,35.672,103.095,35.672z M95.691,68.951c-6.873,3.48-25.75,22.916-26.106,32.749
		c-0.036,1.003,0.34,2.907,1.448,3.608c2.5,1.583,4.686-1.076,5.219-1.525C78.918,101.533,91.08,80.088,95.691,68.951z"/>
	<path fill="#5B5C5C" d="M119.538,53.508c-0.261,1.131-0.348,2.262-0.348,3.132c0,3.567,1.479,7.309,6.874,7.309
		c7.396,0,15.139-7.047,19.489-15.4l1.044,0.783c-4.698,10.441-13.747,17.14-22.36,17.14c-7.047,0-10.615-4.437-10.615-10.092
		c0-10.354,11.833-25.058,22.1-25.058c2.697,0,5.394,1.044,5.394,5.307C141.115,45.504,129.456,52.551,119.538,53.508z
		 M119.973,51.855c6.177-2.175,17.314-8.353,17.314-15.835c0-1.305-0.348-2.001-1.827-2.001
		C129.891,34.019,122.322,43.59,119.973,51.855z"/>
	<path fill="#5B5C5C" d="M150.945,46.983c-0.696,3.132-1.131,6.178-1.131,8.788c0,4.524,1.305,6.7,3.829,6.7
		c4.611,0,9.483-7.135,12.529-13.921l1.305,0.696c-4.611,9.919-10.092,16.009-16.357,16.009c-4.959,0-6.96-3.829-6.96-8.962
		C144.158,39.587,165.301,0,171.217,0c1.827,0,2.872,4.002,2.872,6.438C174.088,14.182,163.647,36.456,150.945,46.983z
		 M151.728,44.025c10.093-10.18,19.664-29.756,19.664-35.585c0-1.131-0.348-1.392-0.609-1.392
		C168.433,7.047,156.513,27.233,151.728,44.025z"/>
	<path fill="#5B5C5C" d="M192.358,46.374c0,2.001-5.046,7.917-5.046,12.094c0,1.74,0.87,3.828,2.958,3.828
		c3.132,0,8.701-4.524,13.921-13.747l0.87,0.87c-3.654,9.397-11.05,15.835-17.227,15.835c-4.263,0-6.265-3.045-6.265-6.09
		c0-0.696,0.087-1.566,0.261-2.523c-5.046,6.699-8.875,10.093-13.138,10.093c-3.654,0-6.438-2.349-6.438-7.222
		c0-10.354,12.79-26.71,24.101-26.71c4.524,0,7.917,2.61,7.917,6.525c0,2.871-1.74,3.741-4.263,3.741
		c0.261-0.957,0.435-2.088,0.435-3.045c0-2.61-1.131-4.872-4.264-4.872c-8.178,0-17.923,16.183-17.923,24.623
		c0,2.349,0.783,3.393,2.349,3.393c5.394,0,14.008-12.703,18.271-18.967C189.922,44.373,192.358,45.069,192.358,46.374z"/>
	<path fill="#5B5C5C" d="M231.767,57.511c0,4.785,1.305,8.179,4.786,8.179c3.306,0,7.308-3.045,9.571-7.309
		c-4.264-2.175-6.352-6.874-6.352-11.224c0-5.568,3.393-9.223,7.309-9.223c3.306,0,5.48,2.784,5.48,8.004
		c0,3.828-1.131,8.004-3.045,11.833c0.696,0.174,1.479,0.261,2.262,0.261c6.178,0,9.137-5.481,11.137-9.483l1.045,1.131
		c-3.307,8.004-8.005,9.918-12.441,9.918c-0.957,0-1.914-0.087-2.785-0.261c-3.132,5.307-7.743,9.658-13.833,9.658
		c-6.003,0-8.961-4.263-8.961-10.963c0-17.488,19.924-57.511,27.059-57.511c1.914,0,2.784,3.045,2.784,5.481
		c0,8.091-9.571,26.972-19.837,33.149C234.899,41.066,231.767,50.202,231.767,57.511z M236.9,35.759
		c8.004-6.438,15.922-23.057,15.922-27.494c0-0.522-0.087-0.696-0.348-0.696C250.561,7.569,240.902,22.447,236.9,35.759z
		 M246.992,56.641c1.219-2.61,2.002-5.655,2.002-8.788c0-4.002-1.219-6.525-2.871-6.525c-1.74,0-3.307,2.697-3.307,6.265
		C242.816,50.724,243.948,54.64,246.992,56.641z"/>
	<path fill="#5B5C5C" d="M289.014,46.374c0,2.001-5.047,7.917-5.047,12.094c0,1.74,0.871,3.828,2.959,3.828
		c3.132,0,8.7-4.524,13.92-13.747l0.871,0.87c-3.654,9.397-11.051,15.835-17.228,15.835c-4.263,0-6.265-3.045-6.265-6.09
		c0-0.696,0.088-1.566,0.262-2.523c-5.047,6.699-8.875,10.093-13.139,10.093c-3.654,0-6.438-2.349-6.438-7.222
		c0-10.354,12.789-26.71,24.1-26.71c4.524,0,7.918,2.61,7.918,6.525c0,2.871-1.74,3.741-4.264,3.741
		c0.262-0.957,0.436-2.088,0.436-3.045c0-2.61-1.131-4.872-4.264-4.872c-8.178,0-17.923,16.183-17.923,24.623
		c0,2.349,0.782,3.393,2.349,3.393c5.395,0,14.008-12.703,18.271-18.967C286.577,44.373,289.014,45.069,289.014,46.374z"/>
	<path fill="#5B5C5C" d="M303.019,67.777c-0.522,0-0.87-0.435-0.87-1.305c0-2.001,6.09-9.832,12.877-17.401
		c-0.609-5.395-1.131-10.093-3.828-10.093c-4.264,0-6.699,6.003-10.354,12.442l-0.783-1.392c3.219-6.178,5.046-14.443,12.528-14.443
		c4.524,0,6.352,3.654,7.222,8.265c5.395-5.655,10.267-10.092,11.833-10.092c0.522,0,2.175,0.348,2.175,0.957
		c-2.001,0-7.656,5.742-13.486,12.529c0.697,7.047,0.436,14.53,4.699,14.53c4.263,0,9.918-8.004,12.268-13.138l0.87,0.87
		c-2.523,7.482-9.223,15.4-15.313,15.4c-5.133,0-6.612-5.742-7.395-11.92c-4.873,5.83-9.311,11.485-11.398,14.182
		C303.715,67.604,303.367,67.777,303.019,67.777z"/>
	<path fill="#5B5C5C" d="M362.092,36.456c-6.352,0.696-11.397,1.044-15.312,1.044h-1.305c-2.697,6.177-4.786,12.79-4.786,18.967
		c0,5.046,1.393,6.96,4.872,6.96c6.004,0,12.095-5.743,16.531-14.878l1.132,0.87c-4.177,9.832-12.007,17.228-20.186,17.228
		c-5.046,0-7.743-2.872-7.743-8.614c0-5.133,2.088-13.051,5.046-20.968c-1.132-0.174-2.175-0.348-3.132-0.696v-1.566
		c0.869,0.087,2.175,0.261,3.828,0.348c4.872-12.529,11.571-24.449,15.139-24.449c0.87,0,1.827,0.696,1.827,1.914
		c0,3.045-6.525,12.094-11.571,22.795h3.219c3.828,0,8.092-0.087,12.441-0.522V36.456z"/>
	<path fill="#5B5C5C" d="M365.222,53.508c-0.261,1.131-0.348,2.262-0.348,3.132c0,3.567,1.479,7.309,6.873,7.309
		c7.396,0,15.14-7.047,19.489-15.4l1.045,0.783c-4.699,10.441-13.747,17.14-22.361,17.14c-7.047,0-10.614-4.437-10.614-10.092
		c0-10.354,11.833-25.058,22.1-25.058c2.697,0,5.395,1.044,5.395,5.307C386.8,45.504,375.141,52.551,365.222,53.508z
		 M365.657,51.855c6.177-2.175,17.313-8.353,17.313-15.835c0-1.305-0.348-2.001-1.826-2.001
		C375.576,34.019,368.006,43.59,365.657,51.855z"/>
	<path fill="#5B5C5C" d="M389.668,51.594c1.566-3.045,4.524-9.135,7.048-16.531c-0.522-0.522-0.87-1.218-0.87-2.088
		c0-3.48,2.697-5.917,3.654-5.917c1.218,0,1.218,1.479,1.218,2.088s-0.957,2.871-0.957,3.219c0,3.219,8.875,4.698,8.875,12.094
		c0,5.307-4.351,11.05-4.351,14.704c0,2.088,1.218,2.61,2.61,2.61c5.481,0,12.616-7.917,14.791-12.964l1.131,0.87
		c-3.306,7.396-10.788,15.226-18.184,15.226c-3.916,0-6.352-2.262-6.352-5.655c0-5.133,4.785-11.659,4.785-16.27
		c0-3.741-2.697-5.046-4.872-6.613c-2.697,6.874-5.917,13.573-7.744,16.705L389.668,51.594z"/>
	<path fill-rule="evenodd" clip-rule="evenodd" fill="#5B5C5C" d="M410.309,113.361c4.261-2.148,8.462,4.29,13.049,4.076
		c-1.689,2.904-3.921,4.299-6.093,5.859c-2.397-0.587-4.78,1.08-7.547,1.013c-0.56-0.013-1-0.711-1.7-0.803
		c-0.7-0.091-1.48,0.457-1.842,0.38c-6.861-1.497-14.09-11.529-20.311-5.427c0.247,1.143,1.981-0.199,2.862,0.104
		c3.106,1.133,4.403,1.987,7.483,3.529c0.832,2.645,1.288,7.717-2.294,10.147c-3.117,0.901-7.715-4.036-2.958-4.307
		c-0.48,0.737-0.56,1.331-0.462,1.861c1.946,1.946,3.644,0.113,4.223,0.744c0.442-1.121-0.68-4.308,1.084-4.061
		c-0.809-0.592-1.646-1.773-1.256-3.505c-4.249-3.667-8.962-3.338-12.867-3.576c1.962-2.569,5.88-3.306,8.793-5.416
		c1.995-1.446,2.459-1.834,2.124-2.741c4.265-0.997,3.833-10.901,6.922-13.784c-0.784-0.138-1.151,0.71-1.523-0.302
		c1.086-0.774,0.49-5.097-0.833-7.047c-3.965-5.848-12.007,2.218-5.571,6.521c-0.534,1.137-1.791,0.257-2.502,0.898
		c-0.489-0.535,0.241-0.642,0.483-1.021c-0.522-0.397-0.771-0.038-1.004,0.359c-1.567-1.803-1.789-3.135-1.297-5.184
		c0.262-1.077,1.005-0.463,1.164-0.702c0.395-0.596-0.348-1.46,0.122-2.021c1.902-2.271,5.968-3.289,8.707-1.713
		c5.122,2.948,2.192,11.053,1.726,16.616c3.859-1.911,3.594-10.533,8.1-13.643c1.555-1.073,3.287-0.533,5.186-1.295
		c0.135,1.196-1.712,3.601-2.946,3.601c0.527,2.644-2.045,7.755-4.152,9.683c1.733,0.548,5.916-1.507,7.945,1.668
		c0.59,4.558-4.055,9.286-8.415,7.26c0.062-0.872-0.333-1.575,0.442-2.702c0.588,0.331,0.914-0.078,1.521,0.303
		c1.243,0.299,0.216,0.961-0.141,1.18c4.53,0.083,6.823-7.242,0.346-6.905c-4.617,0.238-11.891,7.244-14.382,11.095
		c4.061,0.237,12.96-0.186,17.052,2.638c-1.185,2.508-3.457-0.237-5.064-0.724c-3.691-1.12-8.21-0.603-11.289-0.753
		c5.626,3.507,12.38,8.317,18.849,7.646c3.376-0.351,5.872-1.064,8.49-3.895c-0.131-1.131-2.12-1.438-3.76-2.608
		c0.073-0.317,0.283-0.257,0.5-0.179C416.874,115.691,412.714,113.713,410.309,113.361 M406.122,99.324
		c0.107,0.27-0.534,0.284-0.502,0.18c1.024-3.206,2.593-6.168,4.334-9.183c-4.353-0.359-5.868,7.578-7.319,11.101
		C403.883,101.455,406.025,99.885,406.122,99.324"/>
	<g>
		<path fill="#5B5C5C" d="M118.699,88.844c0,0.089,0.227,0.307,0.635,0.658c0,0.218,0.045,0.394,0.09,0.481
			c-0.181,0.396-0.453,0.568-0.86,0.525h-0.362c-0.136,0-0.498-0.176-1.042-0.569l-0.181,0.087l-1.268-0.307l-0.137,0.088
			c-0.045,0-0.09-0.044-0.09-0.088c-0.679,0-1.495,0.482-2.4,1.402l-0.771,1.27c0.045,0,0.091,0.044,0.091,0.088
			c-0.136,0-0.272,0.439-0.453,1.314c-0.181,0.044-0.271,0.22-0.271,0.613c0.044,0,0.09,0.044,0.09,0.088
			c-0.136,0-0.318,0.438-0.453,1.313h-0.091l0.045,0.395l-0.091,0.308c0.136,0.043,0.182,0.087,0.182,0.175
			c-0.136,0-0.182,0.088-0.182,0.219c-0.045,1.314-0.136,1.97-0.272,1.97c0.046,0.089,0.046,0.177,0.046,0.22l-0.091,0.351
			c0,0.044,0.045,0.088,0.091,0.088l-0.091,0.396l-0.09,3.24l0.181,0.569h-0.091l0.091,0.131v0.089
			c-0.046,0.043-0.046,0.087-0.091,0.087l0.045,0.175l-0.09,0.175c0.045,0.088,0.09,0.176,0.09,0.308h-0.09l0.09,0.174v0.788
			l-0.09,0.177c0.09,0.044,0.136,0.088,0.136,0.176v0.131c0,0.044-0.046,0.088-0.091,0.088l0.091,0.176v0.875l0.271,2.278h-0.091
			c0.091,0.263,0.182,0.699,0.227,1.312h-0.091l0.091,0.176c0,0.044-0.045,0.044-0.091,0.044c0.181,0.834,0.271,1.402,0.271,1.665
			l-0.091-0.044c0.725,2.848,1.722,4.249,2.945,4.292c0.906,0.045,1.541-0.307,1.857-1.007c0.317-0.656,0.543-1.007,0.679-1.095
			c0.045-0.482,0.136-1.052,0.317-1.796c0-0.043-0.045-0.088-0.09-0.088l0.181-0.965c-0.091-0.48-0.136-1.094-0.091-1.926
			l0.091-5.037h-0.725c-0.226-0.044-0.905,0.045-2.128,0.262c-0.771-0.13-1.269-0.262-1.404-0.438c0,0.044-0.045,0.088-0.091,0.088
			c0-0.133-0.045-0.175-0.136-0.175l0.09-0.352l-0.09-0.395c0.136,0,0.227-0.13,0.272-0.395c0.045,0,0.09,0.045,0.09,0.088
			c0.408-0.088,0.997-0.175,1.812-0.263v0.045c0.045-0.132,1.268-0.264,3.715-0.306c0,0.042,0.045,0.087,0.09,0.087
			c0-0.045,0.045-0.087,0.09-0.087c0.408,0.349,0.634,0.7,0.634,1.006c0,0.089-0.045,0.307-0.181,0.612
			c0.045,0.133,0.091,0.221,0.091,0.266h-0.091l0.091,0.174l-0.046,0.132c0,0.043,0,0.088-0.045,0.088l0.045,0.175
			c0,0.043-0.045,0.087-0.09,0.087c0.136,0.175,0.181,0.351,0.181,0.481l-0.045,0.745c0,0.525-0.046,0.788-0.182,0.788l0.091,0.176
			c0,0.043-0.045,0.088-0.091,0.088c0.136,0.175,0.182,0.35,0.182,0.481l-0.046,0.657c0,0.656-0.045,0.963-0.181,0.963l0.091,0.132
			c0,0.044-0.046,0.088-0.091,0.088c0.136,0.263,0.227,0.964,0.181,2.059c0,0.131-0.045,0.525-0.181,1.095
			c0,0.044,0.045,0.087,0.091,0.087c-0.046,0.877-0.363,1.972-0.997,3.242c-1.042,1.228-2.31,1.796-3.805,1.752
			c-2.083-0.044-3.669-1.4-4.801-4.073l-0.272-1.227c0.045,0,0.09-0.044,0.09-0.089c-0.136,0-0.181-0.042-0.181-0.13
			c0-0.043,0.045-0.088,0.091-0.088c-0.045-0.131-0.136-0.481-0.227-1.052c0.045,0,0.091-0.042,0.091-0.087
			c-0.136,0-0.182-0.044-0.182-0.175v-0.175c-0.317-3.855-0.453-6.134-0.407-6.79v-0.438c0-0.131,0-0.22-0.045-0.307
			c0-0.043,0-0.087,0.045-0.087c-0.045-1.009-0.091-1.709-0.182-2.017c0.046-0.086,0.09-0.218,0.09-0.35
			c0-0.044-0.044-0.175-0.09-0.482h0.09c0-0.043-0.044-0.043-0.09-0.087l0.136-0.394c0-0.133,0.045-0.832,0.136-2.104h0.046
			c0-0.042,0-0.087-0.046-0.087c0.135-0.788,0.227-1.183,0.272-1.183c0-0.042-0.045-0.087-0.091-0.087l0.091-0.395l0.045-1.138
			c0-0.133,0.046-0.22,0.09-0.353l-0.09-0.13c0.589-2.584,1.314-4.381,2.22-5.389c0.906-1.226,2.219-1.839,3.986-1.795
			C116.48,87.968,117.567,88.275,118.699,88.844z"/>
		<path fill="#5B5C5C" d="M135.145,88.583v0.043l0.181-0.043c0.182,0.262,0.635,0.656,1.405,1.182
			c1.042,1.489,1.541,2.366,1.541,2.628c0.407,0.352,0.815,1.797,1.223,4.294c-0.045,0.088-0.091,0.176-0.091,0.219l0.181,0.087
			c0,0.044-0.045,0.088-0.09,0.088c0.045,0.525,0.09,0.919,0.09,1.227v0.132c0,2.54-0.815,4.292-2.491,5.213
			c0-0.045-0.045-0.088-0.091-0.088c0,0.175-0.634,0.524-1.857,1.051c0,0.132-0.316,0.262-0.996,0.395v-0.088
			c-0.181,0.044-0.272,0.132-0.272,0.176c1.359,1.62,2.582,3.373,3.624,5.167c1.133,1.402,2.583,3.462,4.258,6.178
			c0,0.132,0.136,0.481,0.453,0.964v0.175c0,0.044-0.045,0.088-0.09,0.088l0.09,0.131c-0.136,0.351-0.589,0.525-1.359,0.525h-0.091
			c-0.498,0-1.042-0.7-1.585-2.146c-0.09,0-0.408-0.526-0.996-1.533c-0.816-0.964-2.401-3.285-4.802-6.965
			c-0.589-0.657-0.86-0.964-0.905-0.964l-0.091,0.175c0.045,0.351,0.091,0.657,0.091,0.877c0,0.043-0.046,0.131-0.091,0.262
			l0.091,0.482v0.877c0,0.13-0.046,0.218-0.091,0.306l0.091,0.175l-0.091,0.177c0.045,0.087,0.091,0.174,0.091,0.306
			c0,0.044-0.046,0.088-0.091,0.088l0.091,0.175v0.22c0,0.042-0.046,0.088-0.091,0.088c0,0.043,0.045,0.087,0.091,0.087
			l-0.091,0.394c-0.045,1.797-0.09,3.154-0.09,3.986l0.09,0.395c0,0.044-0.045,0.088-0.09,0.088l0.271,1.884
			c-0.09,0.306-0.227,0.48-0.408,0.612h-0.453c0,0.175-0.045,0.263-0.136,0.263c0-0.131-0.136-0.218-0.363-0.263l-0.181,0.087
			c-0.407,0-0.679-0.394-0.725-1.183l0.09-0.175c-0.045-0.131-0.09-0.219-0.09-0.262c0-0.045,0.045-0.088,0.09-0.088l-0.181-0.876
			c0-0.044,0.046-0.088,0.091-0.088l-0.091-0.965v-1.226c0-0.044,0.046-0.088,0.091-0.088l-0.091-0.131v-0.088
			c0-0.045,0.046-0.087,0.091-0.087l-0.091-0.176v-0.218c0-0.045,0.046-0.089,0.091-0.089c0-0.044-0.045-0.088-0.091-0.088
			l0.091-0.57v-1.137l0.09-0.482c-0.045-0.088-0.09-0.22-0.09-0.394c0-0.22,0.045-0.352,0.09-0.352l-0.09-0.525v-1.972
			c0-0.307,0.045-0.656,0.09-1.139c-0.045-0.088-0.09-0.175-0.09-0.219l0.09-0.177l-0.09-0.174l0.09-0.132
			c-0.045-0.13-0.09-0.217-0.09-0.262h0.09l-0.09-0.176v-2.19c0-0.044,0.045-0.044,0.09-0.044l-0.09-0.175l0.09-0.176
			c-0.045-0.088-0.09-0.175-0.09-0.218h0.09l-0.09-0.177v-0.087c0-0.043,0.045-0.087,0.09-0.087l-0.09-0.176v-2.146
			c0-0.131-0.045-0.264-0.091-0.351l0.091-0.175c-0.045-0.657-0.136-1.051-0.181-1.095c0.045-0.133,0.09-0.22,0.09-0.351
			l-0.09-0.395h0.09l-0.181-0.744l0.091-0.132c-0.045-0.832-0.136-1.271-0.181-1.313l0.09-0.175c0-0.045-0.045-0.089-0.09-0.089
			c0-0.044,0.045-0.131,0.09-0.219c-0.045-0.833-0.09-1.27-0.136-1.314l0.045-0.131c-0.045-0.92-0.091-1.401-0.136-1.489
			c0.045-0.087,0.09-0.175,0.09-0.22l-0.181-0.832h0.091c-0.045-0.088-0.091-0.175-0.091-0.219l0.091-0.176
			c-0.045-0.087-0.136-0.35-0.182-0.743h0.091l-0.091-0.133v-0.92c0.136-0.394,0.453-0.656,0.907-0.788h0.09
			C132.2,87.443,133.695,87.837,135.145,88.583z M131.974,89.632l0.09,0.132v0.263c0,0.045-0.045,0.089-0.09,0.089l0.09,0.131v0.087
			c0,0.046-0.045,0.088-0.09,0.088l0.09,0.176v0.789c0,0.13,0.045,0.263,0.09,0.35c-0.045,0.088-0.09,0.175-0.09,0.307l0.09,0.482
			c0,0.044-0.045,0.087-0.09,0.087l0.09,0.395v0.92l0.045,0.394h-0.045l0.045,0.176c0,0.044,0,0.087-0.045,0.087l0.045,0.133
			c0,0.043,0,0.087-0.045,0.087l0.045,0.395c0,1.095,0.045,2.452,0.182,4.161c0,0.044-0.045,0.087-0.09,0.087l0.09,0.395v0.964
			c0,0.307,0.045,0.657,0.091,1.138c-0.046,0.089-0.091,0.22-0.091,0.395l0.091,0.176l-0.091,0.175c0,0.044,0.045,0.132,0.091,0.219
			l-0.091,0.482v0.176c0.679,0,1.676-0.395,3.035-1.228c0.815-0.395,1.45-1.095,1.902-2.189c-0.045,0-0.09-0.044-0.09-0.088
			c0.181,0,0.271-0.481,0.271-1.445v-0.568c0-0.396-0.044-0.658-0.181-0.876l0.091-0.177c-0.499-2.76-0.951-4.117-1.359-4.117
			c-0.453-1.358-1.314-2.365-2.582-3.022l-1.404-0.394C132.064,89.59,132.02,89.632,131.974,89.632z"/>
		<path fill="#5B5C5C" d="M158.386,89.415c0.044,0,0.361,0.701,0.905,2.102l2.039,7.271c0.226,1.753,0.362,2.629,0.498,2.629
			c0,0.044-0.045,0.087-0.09,0.087c1.223,7.578,2.039,12.002,2.446,13.36h-0.09l0.724,2.76c0.045,0,0.091,0.044,0.091,0.088v0.788
			l-0.181-0.087c0,0.13-0.317,0.306-0.906,0.48c0,0.132-0.045,0.176-0.182,0.176c-0.634,0-1.087-1.008-1.404-3.066
			c-0.453-1.401-1.132-5.126-1.993-11.127h-0.951l-0.815,0.089v-0.089l-0.182,0.089c-0.045,0-0.09-0.044-0.09-0.089l-0.181,0.089
			h-0.136c-0.045,0-0.09-0.044-0.09-0.089c-0.045,0-0.091,0.045-0.091,0.089c-0.271-0.044-0.906-0.131-1.857-0.175
			c-0.045,1.534-0.09,2.277-0.226,2.277c0,0.043,0.044,0.087,0.09,0.087c-0.046,0.481-0.135,0.745-0.181,0.745l0.091,0.131
			c-0.363,1.972-0.589,3.022-0.68,3.199l0.091,0.131c-0.272,0.92-0.544,2.189-0.771,3.811h-0.091l0.091,0.176v0.087
			c0,0.043-0.045,0.088-0.091,0.088l0.091,0.131l-0.317,1.227c0,0.044,0.045,0.088,0.091,0.088l-0.091,0.394v0.176l0.091,0.395
			c-0.227,0.131-0.454,0.394-0.68,0.832c-0.045,0-0.362,0.044-0.906,0.131c-0.045,0-0.09-0.044-0.09-0.087l-0.181,0.087h-0.09
			c-0.091,0-0.272-0.175-0.499-0.569c0-0.044,0.045-0.088,0.09-0.088l-0.09-0.13v-0.088l0.182-0.263
			c0-0.044-0.046-0.044-0.091-0.044c0.045-0.569,0.182-1.271,0.408-2.06c-0.045-0.087-0.091-0.176-0.091-0.219h0.091l-0.091-0.175
			c0.136-0.22,0.227-0.701,0.363-1.445c-0.045,0-0.091-0.044-0.091-0.088c0.136,0,0.181-0.044,0.181-0.176l-0.09-0.394
			c0.181,0,0.589-2.104,1.223-6.31h0.091c0-0.042-0.045-0.087-0.091-0.087c0.046-0.394,0.136-0.568,0.182-0.568
			c0-0.044-0.045-0.088-0.091-0.088c0.136-1.183,0.272-2.234,0.454-3.241l-0.091-0.176c0.045-0.263,0.091-0.395,0.135-0.395
			c0-0.044,0-0.087-0.044-0.087c0-0.264,0.317-2.628,0.906-7.053c0-0.043-0.045-0.087-0.091-0.087
			c0.317-2.673,0.68-4.862,0.996-6.615c0.589-0.13,0.861-0.262,0.861-0.35l0.136,0.088l0.272-0.175
			C157.978,88.275,158.386,88.757,158.386,89.415z M156.936,95.329l0.091,0.174c-0.046,0.483-0.091,0.701-0.136,0.701
			c0,0.044,0,0.088,0.045,0.088c-0.045,0.744-0.227,2.015-0.634,3.811c0,0.044,0,0.089,0.045,0.089
			c-0.091,0.656-0.136,1.356-0.136,2.101h-0.091l0.091,0.177l-0.091,0.481v0.087h0.815c0.045,0,0.091,0.044,0.091,0.088
			c0.045,0,0.09-0.044,0.09-0.088l0.408,0.088h0.589c0.136,0,0.227-0.044,0.363-0.088c0.09,0.044,0.181,0.088,0.317,0.088h0.679
			l0.408-0.088c-0.68-4.073-1.404-7.096-2.175-9.022c-0.135-0.789-0.226-1.183-0.316-1.183
			C157.162,94.452,156.98,95.285,156.936,95.329z"/>
		<path fill="#5B5C5C" d="M175.465,87.531c0.181,0,0.271,0.088,0.271,0.307c0.045,0,0.091-0.044,0.091-0.087l0.408,0.087
			c0.136,0,0.227-0.044,0.362-0.087c1.405,0.218,2.583,0.569,3.488,1.051c1.404,0.831,2.356,2.102,2.854,3.811
			c0.453,1.884,0.679,3.24,0.679,4.117h-0.09l0.09,0.176v0.657c0,0.175,0.046,0.307,0.091,0.395
			c-0.045,0.656-0.135,0.963-0.181,0.963c0,0.044,0.046,0.088,0.09,0.088c-0.044,0.569-0.136,0.921-0.181,1.051
			c0,0.044,0.045,0.088,0.09,0.088c-0.136,0.701-0.226,1.052-0.317,1.052c0.046,0.131,0.091,0.219,0.091,0.263
			c-0.045,0.831-0.725,1.971-2.039,3.46c-0.091,0-0.363,0.263-0.815,0.743c-0.182,0.046-0.589,0.308-1.269,0.789
			c-0.725,0.221-1.404,0.352-2.039,0.352h-0.316l-0.181-0.088v0.088c0,0.042,0.045,0.087,0.09,0.087l-0.09,0.569v0.22
			c0,0.131,0.045,0.219,0.09,0.35c-0.045,0.133-0.137,0.7-0.227,1.665c0.045,0.394,0.09,0.701,0.09,0.92v1.621l0.046,0.394h-0.046
			l0.046,0.177v0.656c0,0.043,0,0.043-0.046,0.043c0.046,0.176,0.091,0.264,0.137,0.264c-0.045,0.744-0.137,1.401-0.227,1.927
			c0,0.044,0.045,0.088,0.09,0.088c-0.045,0.438-0.135,0.657-0.181,0.657l0.091,0.175v0.701l0.09,0.568
			c-0.317,0.395-0.77,0.657-1.359,0.745c0-0.044-0.271-0.176-0.86-0.395c0-0.218-0.091-0.438-0.226-0.656h0.09
			c-0.045-0.263-0.136-0.395-0.182-0.395c0.045-0.569,0.136-0.92,0.182-1.051c0-0.045-0.045-0.088-0.09-0.088l0.181-1.489
			l-0.091-0.132l0.136-0.744c-0.045-0.088-0.045-0.176-0.045-0.307h0.045l-0.045-0.175l0.045-0.307c0-0.045,0-0.087-0.045-0.087
			l0.045-0.396v-1.008l-0.045-0.48c0.045-0.088,0.045-0.221,0.045-0.396v-0.175c0-0.132,0-0.219-0.045-0.219l0.136-1.533
			c-0.045-0.131-0.091-0.219-0.091-0.264h0.091c0-0.043-0.045-0.087-0.091-0.087c0.136-0.481,0.181-0.832,0.181-0.964
			c-0.045-0.132-0.09-0.219-0.09-0.263h0.09l-0.09-0.132v-1.401c0-0.262,0.045-0.656,0.09-1.183l-0.181-0.088l0.181-0.438
			c0-0.043-0.045-0.043-0.09-0.043l0.09-0.438v-0.131c0-0.219-0.045-0.438-0.09-0.745l0.09-0.176l-0.09-0.48v-0.088
			c0-0.045,0.045-0.088,0.09-0.088c0-0.044-0.045-0.044-0.09-0.044l0.09-0.35c-0.045-0.395-0.09-0.613-0.09-0.657l0.09-0.395h-0.09
			c0.045-0.088,0.09-0.176,0.09-0.218c0-0.265-0.045-0.877-0.09-1.884h0.09l-0.09-0.176v-0.395c0-0.044,0.045-0.088,0.09-0.088
			l-0.09-0.131c0-0.045,0.045-0.087,0.09-0.087c0-0.045-0.045-0.089-0.09-0.089c0.045-1.007,0.09-1.708,0.09-2.189v-1.402
			c0-0.131-0.045-0.219-0.09-0.307c0.045-0.088,0.09-0.175,0.09-0.219c-0.045-0.307-0.09-0.526-0.09-0.657
			c0.045,0,0.09-0.044,0.09-0.087c-0.135,0-0.181-0.045-0.181-0.176c0-0.613-0.045-1.401-0.136-2.322h0.091l-0.091-0.175v-0.087
			c0-0.044,0.045-0.088,0.091-0.088l-0.091-0.175v-0.613c0-0.657,0.227-1.008,0.68-1.008h0.045l0.18,0.088
			c0.046-0.088,0.091-0.132,0.182-0.132H175.465z M176.416,89.94v0.307c0,0.175-0.045,0.263-0.091,0.263
			c0.182,1.357,0.271,2.629,0.271,3.723v3.899c0,0.438,0,0.963,0.046,1.532c-0.046,0.089-0.046,0.22-0.046,0.395l0.046,0.438
			l-0.046,0.131c0,0.044,0,0.088,0.046,0.088l-0.046,0.57v0.262l0.046,0.57h-0.046l0.046,0.13v0.176c0,0.045,0,0.088-0.046,0.088
			l0.046,0.175v0.395c0,0.044,0,0.088-0.046,0.088l0.046,0.131v1.709l-0.046,0.175c0.046,0,0.046,0.045,0.046,0.087
			c1.132-0.262,1.675-0.48,1.675-0.656c2.039-1.096,3.035-3.153,3.035-6.176v-0.789l0.09-0.48c-0.045-0.089-0.09-0.614-0.181-1.534
			h0.09c-0.136-0.35-0.181-0.569-0.181-0.656h0.091c-0.136-0.176-0.181-0.352-0.181-0.482h0.09
			c-0.679-2.847-1.313-4.249-1.993-4.249c-0.317-0.263-1.042-0.482-2.175-0.701l-0.588,0.087c0-0.042-0.045-0.087-0.091-0.087
			L176.416,89.94z"/>
		<path fill="#5B5C5C" d="M202.827,87.663c0.271,0.306,0.407,0.787,0.407,1.488h-0.091l0.091,0.133v0.087
			c0,0.044-0.044,0.088-0.091,0.088l0.091,0.174v1.053c0,0.307-0.044,0.701-0.091,1.271l0.091,0.175
			c-0.136,0.744-0.181,1.444-0.181,2.102h-0.09l0.09,0.176l-0.09,0.789c0,0.132,0.045,0.175,0.09,0.175l-0.09,0.569v0.395
			c0,0.613,0,1.401-0.045,2.365c0,0.045,0,0.087,0.045,0.087l-0.045,0.394v1.534c0,0.132,0,0.22,0.045,0.35
			c0,0.045,0,0.045-0.045,0.045c0.045,1.271,0.09,2.059,0.136,2.364c-0.045,0.132-0.09,0.219-0.09,0.264l0.09,0.131l-0.09,0.176
			c0,0.043,0.045,0.087,0.09,0.087l-0.09,0.396v0.263c0,0.352,0.045,0.874,0.18,1.534h-0.09l0.09,0.129v0.833
			c0,0.044-0.044,0.088-0.09,0.088c0.045,0.131,0.137,0.395,0.181,0.876h-0.091l0.183,0.832c-0.046,0.088-0.092,0.176-0.092,0.219
			c0,0.044,0.046,0.089,0.092,0.089l-0.092,0.394c0,0.219,0.046,0.351,0.092,0.438l-0.092,0.395
			c0.046,0.308,0.092,0.526,0.092,0.657h-0.092l0.181,0.394l-0.089,0.394c0.044,0.614,0.135,0.965,0.18,1.053
			c0,0.044-0.044,0.088-0.09,0.088l0.09,0.394v0.569c0,0.044-0.044,0.088-0.09,0.088l0.09,0.175v0.876c0,0.132,0,0.22,0.046,0.351
			c0,0.044,0,0.044-0.046,0.044l0.046,0.351c0,0.132,0,0.395-0.046,0.876l0.046,0.395c-0.046,0.131-0.046,0.219-0.046,0.263
			c0.046,0.132,0.046,0.176,0.046,0.219c-0.046,0-0.181,0.176-0.409,0.525l-0.18-0.088l-0.543,0.088
			c-0.77-0.131-1.178-0.525-1.178-1.139c0.046-0.131,0.046-0.219,0.046-0.35l-0.046-0.395h0.046l-0.046-0.176v-0.7
			c0-0.176-0.045-0.264-0.09-0.264l0.09-0.394v-0.482c0-0.35-0.045-0.876-0.09-1.619h0.09c-0.045-0.133-0.09-0.221-0.09-0.264
			c0-0.657-0.045-1.271-0.181-1.841c0.046-0.219,0.09-0.438,0.09-0.655v-0.177c0-0.13-0.044-0.218-0.09-0.306
			c0-0.045,0.046-0.088,0.09-0.088l-0.09-0.395v-0.919c0-0.044,0.046-0.088,0.09-0.088l-0.09-0.132
			c-0.045-1.401-0.136-2.103-0.182-2.103c0-0.044,0.046-0.088,0.091-0.088l-0.136-1.533h0.045l-0.045-0.175
			c0-0.22,0.045-0.438,0.136-0.657c-0.861,0.044-1.45,0.087-1.812,0.087h-0.182l-0.408,0.089v-0.089l-1.449,0.264l-0.182-0.087
			c-0.09,0.042-0.181,0.087-0.317,0.087c-0.045,0-0.136-0.045-0.271-0.087l-0.499,0.087h-0.317l0.09,0.964
			c0,0.044-0.046,0.088-0.09,0.088l0.09,0.131v1.403c0,0.129,0.045,0.218,0.091,0.306c-0.045,0.13-0.091,0.217-0.091,0.262
			c0.045,1.402,0.136,2.103,0.182,2.103c-0.046,0.22-0.091,0.396-0.091,0.57c0,0.744,0.045,1.358,0.136,1.927h-0.045l0.045,0.175
			c0,0.131,0,0.22-0.045,0.307c0.09,1.709,0.181,2.892,0.317,3.504c0,0.045-0.045,0.089-0.091,0.089l0.271,2.584
			c0,0.131-0.181,0.306-0.498,0.481l-0.182-0.088l-0.589,0.088c-0.453-0.131-0.815-0.395-1.087-0.875v-0.57
			c0-0.043,0.045-0.088,0.09-0.088c-0.136-0.438-0.227-1.095-0.271-1.972c0.045-0.262,0.09-0.568,0.09-0.963
			c0-0.044-0.045-0.132-0.09-0.22c0.045-0.13,0.09-0.218,0.09-0.262c-0.045-0.088-0.09-0.176-0.09-0.219h0.09l-0.09-0.176v-0.394
			c0-0.132,0.045-0.264,0.09-0.351c-0.045-0.088-0.09-0.176-0.09-0.307h0.09c-0.045-0.132-0.09-0.219-0.09-0.264
			c0-0.262-0.045-0.7-0.091-1.357c0-0.044,0.045-0.263,0.091-0.657c-0.136-0.481-0.182-0.744-0.182-0.788
			c0.045-0.132,0.091-0.219,0.091-0.264c-0.091-0.219-0.136-0.437-0.136-0.656c0-0.043,0-0.087,0.045-0.087
			c0-0.044,0-0.088-0.045-0.088l0.045-0.307c0-0.22,0-0.832-0.045-1.84c0-0.044,0-0.219,0.045-0.526l-0.135-1.271h0.09l-0.09-0.174
			v-0.307c0-0.133,0.045-0.22,0.09-0.352c-0.045-0.131-0.136-0.524-0.181-1.182c0.136-2.585,0.181-4.381,0.181-5.389l-0.09-0.307
			c0.045-0.131,0.09-0.219,0.135-0.219l-0.045-0.569V94.32c0-0.044,0-0.088,0.045-0.088l-0.045-0.175c0-0.35,0-0.657,0.045-0.964
			l-0.135-1.27c0.09,0,0.135-0.088,0.135-0.263c-0.045-0.088-0.045-0.175-0.045-0.22h0.045l-0.045-0.175v-0.569
			c0-0.264-0.045-0.395-0.181-0.395l0.091-0.438c0-0.044-0.046-0.132-0.091-0.219l0.091-0.35c-0.046-0.57-0.137-0.876-0.182-0.965
			c0.045-0.263,0.136-0.394,0.182-0.394l-0.091-0.175v-0.088c0.136,0,0.362,0,0.589-0.044c1.132,0,1.676,0.524,1.676,1.533
			c0,0.22,0.045,0.438,0.091,0.656h-0.091l0.091,0.132v0.088c0,0.044-0.045,0.087-0.091,0.087l0.091,0.176
			c-0.045,0.395-0.091,0.57-0.091,0.612l0.091,0.177l-0.091,0.175c0.045,0.087,0.091,0.175,0.091,0.307
			c-0.045,0-0.091,0.043-0.091,0.088c0.136,0,0.227,0.043,0.227,0.175c0,0.044-0.091,0.131-0.227,0.22l0.091,0.175
			c0,0.043-0.045,0.131-0.091,0.262c0.045,0.395,0.091,0.614,0.182,0.614l-0.091,0.438v1.664c0,0.13-0.045,0.263-0.091,0.35
			c0.136,0.307,0.182,0.527,0.182,0.657l-0.182,0.088c0.045,0.482,0.136,0.745,0.182,0.876c-0.046,0.131-0.136,0.351-0.182,0.745
			l0.091,0.132l-0.091,0.175l0.091,0.175l-0.091,0.481c0,0.045,0.045,0.087,0.091,0.087l-0.091,0.395v0.659
			c0,0.042-0.046,0.042-0.09,0.042l0.09,0.176v0.088c0,0.043-0.046,0.088-0.09,0.088c0,0.042,0.044,0.087,0.09,0.087l-0.09,0.701
			c0,0.569,0.181,0.831,0.498,0.831c0.136-0.044,0.227-0.087,0.271-0.087v0.087c0.453-0.13,1.133-0.217,1.994-0.35
			c0.089,0.043,0.18,0.088,0.317,0.088c0.135-0.045,0.226-0.088,0.271-0.088v0.088l0.181-0.088h0.725
			c0.725,0,1.086-0.131,1.086-0.394l-0.045-0.133v-2.058c0-0.133,0-0.22,0.045-0.307c0-0.044,0-0.088-0.045-0.088l0.045-0.394
			v-0.482l-0.045-0.439h0.045l-0.045-0.129v-0.177c0-0.218,0-0.438,0.045-0.744c0-0.044,0-0.044-0.045-0.044l0.045-0.438v-0.394
			c0-0.133,0-0.22-0.045-0.307c0.045-0.482,0.091-0.745,0.136-0.745l-0.091-0.175c0-0.043,0.046-0.176,0.091-0.482
			c0-0.13-0.045-0.175-0.091-0.175c0.136-0.832,0.182-1.884,0.182-3.154c0-0.131-0.045-0.307-0.091-0.613
			c0.045-0.218,0.091-0.437,0.091-0.744v-0.394c0-0.044,0.046-0.088,0.09-0.088l-0.09-0.175c0-0.395,0.226-0.701,0.68-0.964
			C201.649,87.443,202.057,87.531,202.827,87.663z"/>
		<path fill="#5B5C5C" d="M215.376,88.495c0.77,0.219,1.178,0.525,1.178,0.964v0.262c-0.091,0-0.136,0.044-0.136,0.132
			c0.09,0.044,0.136,0.088,0.136,0.175c0,0.045,0,0.089-0.046,0.089c0.046,0.306,0.046,0.525,0.046,0.657l-0.046,0.568
			c0.046,0.088,0.046,0.175,0.046,0.22h-0.046l0.046,0.175v0.088c0,0.043,0,0.043-0.046,0.043l0.046,0.176v0.176
			c0,0.174,0,0.307-0.046,0.394l0.136,0.876h-0.09c0.046,0.132,0.09,0.22,0.09,0.264c-0.09,0.175-0.136,0.306-0.136,0.394
			l0.046,0.438h-0.046c0,0.044,0,0.044,0.046,0.044l-0.046,0.438c0,0.044,0,0.044,0.046,0.044l-0.046,0.438v1.533
			c0,0.044-0.045,0.089-0.09,0.089l0.09,0.129c0,0.221,0.046,1.141,0.136,2.849h-0.09l0.09,0.176c0,0.13-0.044,0.35-0.09,0.656
			c0.046,0.263,0.09,0.438,0.09,0.482c-0.044,0.394-0.09,0.7-0.09,0.963l0.09,0.175l-0.136,0.701l0.046,0.175
			c0,0.044,0,0.089-0.046,0.089l0.046,0.395v1.706c0,0.046,0,0.089-0.046,0.089l0.046,0.176v0.219c0,0.044,0,0.088-0.046,0.088
			l0.046,0.176c0,0.042,0,0.042-0.046,0.042c0.046,0.657,0.092,1.008,0.136,1.008l-0.09,0.396v1.138
			c-0.136,0.658-0.226,1.796-0.226,3.417c0,0.044-0.047,0.132-0.092,0.219l0.092,0.482v0.481c0,0.132-0.047,0.22-0.092,0.35
			c0.045,0.045,0.136,0.526,0.182,1.446l-0.09,0.176c0.044,0.087,0.09,0.175,0.09,0.307h-0.09c0.135,0.131,0.18,0.481,0.226,1.051
			h-0.046l0.046,0.175c0,0.045,0,0.088-0.046,0.088l0.136,0.7c-0.498,0.482-0.77,0.745-0.905,0.745h-0.272
			c-0.679-0.218-0.996-0.351-0.996-0.395c-0.136-0.394-0.227-0.7-0.227-0.919h0.045c-0.089-0.22-0.136-0.658-0.136-1.271
			c0-0.044,0.047-0.087,0.091-0.087c-0.136-0.22-0.181-0.438-0.181-0.658v-0.744c0-0.044,0.045-0.044,0.09-0.044l-0.09-0.175v-0.964
			c0-0.175-0.046-0.306-0.091-0.438c0.271-2.76,0.407-4.38,0.407-4.861v-0.614c0-0.175-0.045-0.307-0.091-0.438l0.091-0.481v-1.14
			c0-0.132-0.045-0.219-0.091-0.306l0.091-0.176l-0.091-0.789l0.091-0.832c-0.045-0.219-0.091-0.438-0.091-0.701h0.091
			c0-0.043-0.045-0.087-0.091-0.087l0.091-0.394v-0.57c0-0.35,0.045-0.744,0.091-1.226c-0.136-0.569-0.182-1.489-0.227-2.673
			c0.045-0.087,0.045-0.219,0.045-0.352c-0.089-0.262-0.136-0.436-0.136-0.568h0.091l-0.091-0.131c0-0.044,0.047-0.087,0.091-0.087
			c0-0.045-0.044-0.089-0.091-0.089l0.227-3.46c-0.045-0.219-0.091-1.139-0.136-2.847l0.045-0.176c0-0.044,0-0.088-0.045-0.088
			c0-0.744,0.091-1.139,0.318-1.139c0.226-0.131,0.452-0.219,0.77-0.219H215.376z"/>
		<path fill="#5B5C5C" d="M232.499,87.268c2.312,0,3.625,0.569,3.852,1.708h-0.046l0.046,0.175c0,0.133-0.227,0.264-0.726,0.481
			v-0.087l-0.181,0.087c-0.996-0.306-1.676-0.481-2.084-0.481l-0.408,0.045v-0.045l-0.181,0.045c-0.046,0-0.09,0-0.09-0.045
			c-1.405,0.526-2.357,1.401-2.854,2.585c-0.181,0.22-0.453,1.051-0.814,2.409l0.089,0.175c-0.136,0.438-0.227,1.095-0.272,1.928
			c0,0.044,0.046,0.132,0.092,0.264l-0.181,2.496l0.089,0.174l-0.089,0.177c0,0.175,0.045,0.306,0.089,0.395
			c-0.044,0.699-0.089,1.27-0.089,1.708v1.62c0,0.131,0.045,0.219,0.089,0.307c-0.044,0.087-0.089,0.219-0.089,0.351v0.307
			c0,0.438,0.045,1.008,0.089,1.708l-0.089,0.176l0.361,1.752h-0.089c0.089,0.307,0.18,0.876,0.316,1.709l-0.091,0.175
			c0.136,0.219,0.181,0.35,0.181,0.482h-0.09c0.135,0.963,0.271,1.577,0.317,1.795l-0.047,0.131
			c0.318,1.753,0.907,3.153,1.677,4.162c0.498,0.524,0.906,0.788,1.178,0.788c1.404,0,2.764-0.613,3.986-1.84
			c0.316-0.044,0.453-0.087,0.498-0.087c0.725,0.087,1.087,0.394,1.087,0.964c0.046,0,0.092,0.043,0.092,0.087v0.219l-1.767,1.49
			c-0.136,0-0.271,0.087-0.499,0.306c-1.224,0.394-2.221,0.569-3.08,0.569h-0.589c-0.045,0-0.091-0.044-0.091-0.088l-0.181,0.088
			c-1.359,0-2.627-1.445-3.851-4.292l-0.59-2.279c0-0.042,0.047-0.087,0.092-0.087l-0.316-1.357h0.089l-0.089-0.175v-0.177
			c0-0.043,0.044-0.043,0.089-0.043c-0.045-0.087-0.136-0.394-0.181-0.92h0.092c-0.047-0.131-0.138-0.481-0.183-0.964h0.091
			c-0.227-0.963-0.317-1.577-0.317-1.795h0.046l-0.137-0.395c0-0.044,0.045-0.088,0.091-0.088c-0.136-0.569-0.181-0.918-0.181-1.139
			h0.09c0-0.045-0.045-0.087-0.09-0.087l0.09-0.395v-0.132l-0.09-0.438h0.09l-0.09-0.131v-0.833c0-0.043,0.045-0.087,0.09-0.087
			l-0.09-0.132c0-0.043,0.045-0.088,0.09-0.088l-0.182-0.831c0.046-0.481,0.137-0.702,0.182-0.702l-0.09-0.174v-1.533
			c0-0.044,0.045-0.089,0.09-0.089c-0.045-0.13-0.09-0.218-0.09-0.262l0.09-0.133c-0.045-0.129-0.09-0.218-0.09-0.35
			c0-0.045,0.045-0.087,0.09-0.087l-0.09-0.132c0-3.986,0.634-6.833,1.901-8.586c0.408-0.744,1.089-1.313,2.039-1.795
			c0-0.175,0.499-0.395,1.495-0.657H232.499z"/>
		<path fill="#5B5C5C" d="M262.218,87.443c0.045,0,0.045,0,0.045-0.043c0.046,0,0.136,0,0.271,0.043c0.046,0,0.272,0,0.68-0.043
			c1.313,0,2.537,0.351,3.76,1.05c1.133,0.834,1.948,2.103,2.446,3.724l0.815,3.899c-0.046,0.087-0.09,0.175-0.09,0.219l0.18,0.088
			l-0.09,0.175c0.181,1.271,0.316,2.103,0.408,2.409l-0.046,0.351c0.046,0.569,0.091,0.963,0.226,1.271
			c0,0.043-0.045,0.087-0.09,0.087c0.181,1.884,0.317,2.847,0.362,2.847l-0.09,0.569v1.447c0,1.619-0.046,2.672-0.183,3.065
			l0.091,0.176c-0.181,0.568-0.271,0.919-0.271,1.051v0.569c0,0.044,0,0.087-0.046,0.087c0,0.044,0,0.088,0.046,0.088
			c-0.363,2.277-0.726,3.812-1.133,4.6c-0.317,1.008-0.77,1.796-1.449,2.365c-0.544,0.395-0.816,0.657-0.816,0.7
			c-0.769,0.351-1.404,0.526-1.947,0.526v-0.088l-1.405,0.395c-0.634-0.131-0.95-0.22-0.95-0.263l-0.136,0.087h-0.091
			c-0.59-0.219-0.86-0.569-0.86-1.051l-0.091-0.395l0.091-0.306c-0.046-0.307-0.091-0.526-0.091-0.746h0.091l-0.091-0.174v-2.016
			l-0.046-0.965h0.046c-0.046-0.13-0.046-0.218-0.046-0.262s0-0.087,0.046-0.087l-0.046-0.395v-0.788
			c0-0.22-0.045-0.438-0.091-0.745c0-0.043,0.046-0.089,0.091-0.089c-0.045-0.13-0.135-0.919-0.18-2.364h0.089
			c-0.044-0.263-0.136-0.394-0.181-0.394l0.092-0.395v-0.264c0-0.131-0.047-0.219-0.092-0.307c0-0.044,0.045-0.087,0.092-0.087
			l-0.092-0.394v-0.088c0-0.133,0.045-0.22,0.092-0.22c-0.092-0.744-0.137-1.183-0.183-1.313c0.046-0.132,0.091-0.219,0.091-0.263
			l-0.091-0.396c0.046,0,0.091-0.042,0.091-0.087l-0.181-0.088l0.09-0.306c0-0.308-0.045-0.877-0.181-1.709h0.091
			c0-0.044-0.046-0.087-0.091-0.087c-0.046-1.14-0.046-2.016-0.046-2.585v-0.745l-0.09-0.525h0.09l-0.09-0.176v-0.481
			c0-0.308,0.044-0.525,0.09-0.743c-0.046-0.308-0.09-0.57-0.09-0.789v-0.921c0-0.131-0.046-0.219-0.091-0.307
			c0.045-0.13,0.091-0.219,0.091-0.263l-0.091-0.307l0.091-0.174c0-0.045-0.046-0.088-0.091-0.088l0.091-0.395v-0.964l0.09-0.482
			c-0.046-0.088-0.09-0.218-0.09-0.394v-0.088l0.09-0.482l-0.09-0.174c0.044-0.089,0.09-0.221,0.09-0.351
			c-0.046-0.133-0.136-0.219-0.181-0.219l0.091-0.57l-0.091-0.481c0.045-0.088,0.091-0.219,0.091-0.351
			c-0.137-0.351-0.182-0.569-0.182-0.701v-0.175c0.226-0.525,0.681-0.788,1.359-0.788V87.443z M263.44,89.984l-0.045,0.568
			c0.09,0.57,0.135,0.834,0.135,0.877c-0.045,0-0.09,0.044-0.09,0.087c0.045,0,0.09,0.045,0.09,0.088l-0.135,0.088l0.135,0.788
			c-0.09,0.219-0.135,0.526-0.135,0.92v3.855c0,0.219-0.046,0.437-0.09,0.656c0.044,0.22,0.09,0.439,0.09,0.657v0.306
			c0,1.184,0.045,2.061,0.135,2.629h-0.09l0.09,0.131c0,0.177-0.045,0.307-0.09,0.396l0.182,1.621h-0.092l0.092,0.174v0.569
			l0.09,0.481c0,0.045-0.045,0.089-0.09,0.089c0.135,0.612,0.181,1.007,0.181,1.227h-0.091l0.091,0.175v1.841
			c0,0.699,0.046,1.183,0.137,1.445c-0.047,0.131-0.047,0.218-0.047,0.262c0.047,0.133,0.047,0.175,0.047,0.22h-0.047l0.047,0.175
			v1.315l0.09,0.962h-0.09l0.09,0.176v0.875c0,0.133,0.045,0.22,0.091,0.307c-0.046,0.133-0.091,0.22-0.091,0.352v0.876l0.091,0.395
			h-0.091l0.091,0.175c0,0.044-0.046,0.088-0.091,0.088l0.183,1.139c0.135,0,0.315-0.044,0.588-0.176c0.045,0,0.09,0.045,0.09,0.088
			c1.224,0,2.084-0.919,2.583-2.76c0.498-1.007,0.905-3.372,1.177-7.052c0.046-0.044,0.092-0.614,0.092-1.709v-0.7
			c0-1.271-0.046-2.189-0.183-2.761h0.091l-0.498-3.417h0.092c-0.046-0.394-0.137-0.655-0.272-0.788l0.091-0.437
			c-0.589-3.461-1.179-5.694-1.857-6.703c-0.545-0.7-1.314-1.05-2.312-1.05c-0.315,0.043-0.497,0.088-0.497,0.13
			C263.396,89.764,263.396,89.896,263.44,89.984z"/>
		<path fill="#5B5C5C" d="M285.64,88.801c0.044,0,0.09-0.044,0.09-0.088l0.453,0.088h1.722c0.226,0,0.453,0.043,0.77,0.088
			c0.091-0.045,0.182-0.088,0.317-0.088l0.182,0.088c0.135-0.045,0.228-0.088,0.271-0.088l0.136,0.088
			c0.136-0.045,0.226-0.088,0.363-0.088c0.271,0.132,0.497,0.35,0.725,0.744c-0.137,0.701-0.771,1.052-1.994,1.052l-0.316-0.088
			c-1.359-0.043-2.22-0.088-2.628-0.088v-0.088l-0.136,0.088h-1.449v0.394c0,0.045-0.045,0.088-0.092,0.088l0.092,0.176v0.395
			c0,0.263-0.045,0.394-0.182,0.394c0.137,0.307,0.182,0.483,0.182,0.569h-0.092c0,0.044,0.047,0.089,0.092,0.089
			c0,0.044-0.045,0.131-0.092,0.262c0,0.045,0.047,0.176,0.092,0.482l-0.092,0.745c0.047,0.262,0.092,0.525,0.092,0.788h-0.092
			c0,0.043,0.047,0.088,0.092,0.088c0,0.131-0.045,0.219-0.092,0.307c0.047,0.744,0.092,1.401,0.092,1.972v0.48l0.091,0.482
			c-0.046,0.088-0.091,0.22-0.091,0.394c0,0.35,0.045,0.744,0.182,1.139h-0.091l0.091,0.176c0,0.044-0.046,0.089-0.091,0.089
			l0.091,0.13l-0.091,0.569l0.091,0.833h-0.091c0.136,0.219,0.181,0.437,0.181,0.657v0.218h0.59c0.135,0,0.225-0.044,0.225-0.088
			l0.409,0.088h0.362c0.315,0,0.679-0.044,1.177-0.088l0.136,0.088c0.318-0.044,0.544-0.088,0.77-0.088
			c0.409,0,0.681,0.264,0.861,0.746c0,0.48-0.406,0.875-1.177,1.138l-0.59-0.087h-1.268l-0.59,0.087v-0.087l-0.679,0.175
			c0-0.132-0.046-0.175-0.136-0.175l-0.091,0.175v0.308c0,0.175,0.046,0.263,0.091,0.263l-0.091,0.394v0.745
			c0,0.131,0.046,0.219,0.091,0.307c0,0.043-0.045,0.089-0.091,0.089l0.091,0.306c-0.045,1.4-0.091,2.364-0.091,2.847l0.091,0.176
			l-0.091,0.131l0.091,0.438l-0.091,0.132c0.046,0.307,0.091,0.438,0.135,0.438l-0.044,0.395v2.847c0,0.132,0,0.22,0.044,0.308
			c-0.044,0.087-0.044,0.175-0.044,0.307v0.831l0.044,0.483v0.306c0.771,0.131,1.858,0.176,3.354,0.176h0.091
			c0.135,0,0.226-0.045,0.362-0.088c0.09,0.043,0.182,0.088,0.316,0.088h0.771c0.181,0,0.407-0.045,0.725-0.088
			c0.045,0,0.091,0.043,0.091,0.088l0.861-0.088h1.087c0.452,0.263,0.68,0.569,0.68,0.964c-0.409,0.613-0.816,0.919-1.133,0.919
			c0,0.044-0.183,0.088-0.544,0.132l-0.183-0.044l-0.36,0.044l-0.499-0.044c-0.045,0-0.091,0-0.091,0.044l-0.407-0.044h-0.091
			l-0.499,0.044c-0.09-0.044-0.18-0.044-0.226-0.044l-0.362,0.044c-0.317-0.044-0.498-0.044-0.635-0.044l-0.181,0.044
			c-0.137-0.044-0.228-0.044-0.272-0.044l-0.725,0.044v-0.044l-0.181,0.044h-0.272c-0.135,0-0.226,0-0.316-0.044
			c-0.092,0.044-0.182,0.044-0.317,0.044l-0.363-0.044c-0.09,0.044-0.225,0.044-0.406,0.044v-0.044c-0.046,0-0.091,0-0.091,0.044
			l-0.407-0.044h-0.273c-0.315,0.044-0.498,0.089-0.498,0.219l-0.407-0.088l-0.317,0.176c-0.136-0.044-0.271-0.088-0.452-0.088
			v-0.088c0-0.042,0.044-0.087,0.09-0.087c-0.136-0.175-0.182-0.394-0.182-0.612v-2.76c0-0.044,0.046-0.088,0.092-0.088
			l-0.092-0.176v-0.307c0-0.043,0.046-0.087,0.092-0.087l-0.092-0.176v-0.132c0-0.043,0.046-0.088,0.092-0.088l-0.092-0.174v-4.293
			c0-0.132,0.046-0.219,0.092-0.307l-0.092-0.176c0.046-0.088,0.092-0.218,0.092-0.351c0-0.043-0.046-0.043-0.092-0.043l0.092-0.438
			v-1.183l-0.092-0.833h0.092l-0.092-0.176v-0.131c0-0.044,0.046-0.088,0.092-0.088l-0.092-0.176v-3.416c0-0.131,0-0.22-0.045-0.307
			l0.045-0.175c0-0.088-0.045-0.263-0.136-0.569c0-0.132,0.046-0.219,0.091-0.307c-0.136-1.14-0.181-2.497-0.181-4.117v-0.834
			l-0.09-0.394h0.09c0-0.044-0.045-0.087-0.09-0.087c0-0.133,0.045-0.175,0.09-0.175c-0.045-1.095-0.09-1.884-0.09-2.41v-1.62
			c0-0.044,0.045-0.088,0.09-0.088l-0.09-0.176c0-0.218,0.045-0.481,0.09-0.787c-0.045-0.22-0.09-0.438-0.09-0.57
			c0.589-0.569,1.133-0.832,1.675-0.832v0.088c0.137-0.044,0.227-0.088,0.271-0.088l0.136,0.088
			c0.092-0.044,0.228-0.088,0.363-0.088l0.317,0.088c0.272-0.132,0.543-0.176,0.86-0.176L285.64,88.801z"/>
		<path fill="#5B5C5C" d="M309.921,87.575c0.091-0.044,0.182-0.088,0.317-0.088c0.815,0.132,1.677,0.568,2.582,1.402
			c0.452,0.481,1.087,1.796,1.856,4.03c0,0.832-0.452,1.27-1.404,1.312l-0.95-0.657c-0.137-0.7-0.499-1.708-1.087-2.978
			c-0.363-0.877-1.042-1.313-1.994-1.313c-1.493,0-2.536,0.788-3.035,2.365c-0.226,0.92-0.406,1.357-0.498,1.357
			c0,0.043,0.046,0.087,0.092,0.087l-0.092,0.569v0.176l0.59,1.753c0.589,1.095,1.223,2.101,1.946,3.021
			c2.945,2.673,4.44,4.162,4.44,4.381c1.132,1.313,1.903,3.197,2.31,5.649c0,0.221,0.045,0.438,0.182,0.746
			c-0.044,1.707-0.091,2.847-0.091,3.372c-0.091,0.613-0.181,0.92-0.227,0.92l0.091,0.132c-0.135,1.139-0.86,2.54-2.22,4.161
			c-1.494,1.007-2.898,1.532-4.168,1.532v-0.088l-0.18,0.088h-0.59c-1.042-0.175-1.857-0.481-2.491-0.876
			c-1.902-1.883-2.854-3.505-2.854-4.817v-0.132c0-0.045,0.045-0.088,0.091-0.088l-0.182-0.569c0.046,0,0.228-0.438,0.499-1.313
			c0.362-0.395,0.77-0.569,1.179-0.569c0.498,0,0.769,0.395,0.769,1.226h-0.091c0.046,0.132,0.091,0.219,0.091,0.263l-0.091,0.307
			c0.046,0.133,0.091,0.22,0.091,0.264l-0.091,0.131c0.138,1.183,0.907,2.453,2.266,3.724c0.317,0.394,0.906,0.569,1.812,0.569
			h0.091c0.046,0,0.092,0.044,0.092,0.088c0.86,0,1.812-0.526,2.763-1.533c0.68-1.359,0.996-2.542,0.996-3.636l0.182-0.176
			l-0.091-0.175c0-0.044,0.046-0.088,0.091-0.22l-0.091-0.481c0-0.131,0.046-0.219,0.091-0.35l-0.091-0.132
			c0.046-0.22,0.091-0.438,0.091-0.569l-0.091-0.177c0.046-0.087,0.091-0.175,0.091-0.217c-0.137-0.921-0.227-1.403-0.317-1.49
			c0-0.044,0.045-0.087,0.091-0.087c-0.181-0.789-0.362-1.402-0.589-1.84c0.045-0.132,0.045-0.219,0.045-0.264l-1.087-1.752
			c0-0.262-1.539-1.928-4.576-5.037c-1.494-1.402-2.265-2.585-2.355-3.591c-0.135,0-0.361-0.657-0.588-2.017h0.09l-0.09-0.131
			c0-0.131,0.044-0.306,0.182-0.525c-0.138,0-0.182-0.044-0.182-0.132v-0.35c0-0.045,0.044-0.088,0.09-0.088l-0.09-0.132
			c0-0.087,0.09-0.176,0.227-0.262l-0.045-0.132c0.136-0.745,0.271-1.096,0.406-1.096c0,0.044,0.046,0.087,0.091,0.087
			c0-0.131,0.092-0.307,0.227-0.568c-0.09,0-0.135-0.044-0.135-0.132v-0.088c0.045,0,0.316-0.395,0.815-1.226
			c1.132-1.141,2.628-1.709,4.529-1.709C309.694,87.487,309.785,87.531,309.921,87.575z"/>
		<path fill="#5B5C5C" d="M326.14,88.495c0.771,0.219,1.179,0.525,1.179,0.964v0.262c-0.091,0-0.137,0.044-0.137,0.132
			c0.091,0.044,0.137,0.088,0.137,0.175c0,0.045,0,0.089-0.046,0.089c0.046,0.306,0.046,0.525,0.046,0.657l-0.046,0.568
			c0.046,0.088,0.046,0.175,0.046,0.22h-0.046l0.046,0.175v0.088c0,0.043,0,0.043-0.046,0.043l0.046,0.176v0.176
			c0,0.174,0,0.307-0.046,0.394l0.136,0.876h-0.09c0.045,0.132,0.09,0.22,0.09,0.264c-0.09,0.175-0.136,0.306-0.136,0.394
			l0.046,0.438h-0.046c0,0.044,0,0.044,0.046,0.044l-0.046,0.438c0,0.044,0,0.044,0.046,0.044l-0.046,0.438v1.533
			c0,0.044-0.045,0.089-0.091,0.089l0.091,0.129c0,0.221,0.046,1.141,0.136,2.849h-0.09l0.09,0.176c0,0.13-0.045,0.35-0.09,0.656
			c0.045,0.263,0.09,0.438,0.09,0.482c-0.045,0.394-0.09,0.7-0.09,0.963l0.09,0.175l-0.136,0.701l0.046,0.175
			c0,0.044,0,0.089-0.046,0.089l0.046,0.395v1.706c0,0.046,0,0.089-0.046,0.089l0.046,0.176v0.219c0,0.044,0,0.088-0.046,0.088
			l0.046,0.176c0,0.042,0,0.042-0.046,0.042c0.046,0.657,0.091,1.008,0.136,1.008l-0.09,0.396v1.138
			c-0.137,0.658-0.228,1.796-0.228,3.417c0,0.044-0.045,0.132-0.091,0.219l0.091,0.482v0.481c0,0.132-0.045,0.22-0.091,0.35
			c0.046,0.045,0.137,0.526,0.182,1.446l-0.091,0.176c0.046,0.087,0.091,0.175,0.091,0.307h-0.091
			c0.137,0.131,0.182,0.481,0.228,1.051h-0.046l0.046,0.175c0,0.045,0,0.088-0.046,0.088l0.136,0.7
			c-0.498,0.482-0.771,0.745-0.906,0.745h-0.271c-0.68-0.218-0.997-0.351-0.997-0.395c-0.136-0.394-0.227-0.7-0.227-0.919h0.046
			c-0.091-0.22-0.137-0.658-0.137-1.271c0-0.044,0.046-0.087,0.091-0.087c-0.137-0.22-0.182-0.438-0.182-0.658v-0.744
			c0-0.044,0.045-0.044,0.091-0.044l-0.091-0.175v-0.964c0-0.175-0.045-0.306-0.091-0.438c0.272-2.76,0.408-4.38,0.408-4.861v-0.614
			c0-0.175-0.045-0.307-0.09-0.438l0.09-0.481v-1.14c0-0.132-0.045-0.219-0.09-0.306l0.09-0.176l-0.09-0.789l0.09-0.832
			c-0.045-0.219-0.09-0.438-0.09-0.701h0.09c0-0.043-0.045-0.087-0.09-0.087l0.09-0.394v-0.57c0-0.35,0.045-0.744,0.091-1.226
			c-0.136-0.569-0.181-1.489-0.227-2.673c0.046-0.087,0.046-0.219,0.046-0.352c-0.091-0.262-0.137-0.436-0.137-0.568h0.091
			l-0.091-0.131c0-0.044,0.046-0.087,0.091-0.087c0-0.045-0.045-0.089-0.091-0.089l0.227-3.46c-0.045-0.219-0.09-1.139-0.136-2.847
			l0.046-0.176c0-0.044,0-0.088-0.046-0.088c0-0.744,0.091-1.139,0.316-1.139c0.228-0.131,0.453-0.219,0.771-0.219H326.14z"/>
		<path fill="#5B5C5C" d="M347.521,88.844c0,0.089,0.226,0.307,0.634,0.658c0,0.218,0.045,0.394,0.091,0.481
			c-0.181,0.396-0.453,0.568-0.859,0.525h-0.363c-0.136,0-0.499-0.176-1.042-0.569l-0.182,0.087l-1.268-0.307l-0.136,0.088
			c-0.046,0-0.092-0.044-0.092-0.088c-0.679,0-1.494,0.482-2.4,1.402l-0.771,1.27c0.046,0,0.092,0.044,0.092,0.088
			c-0.137,0-0.271,0.439-0.454,1.314c-0.181,0.044-0.271,0.22-0.271,0.613c0.045,0,0.091,0.044,0.091,0.088
			c-0.136,0-0.317,0.438-0.453,1.313h-0.091l0.046,0.395l-0.092,0.308c0.137,0.043,0.182,0.087,0.182,0.175
			c-0.136,0-0.182,0.088-0.182,0.219c-0.044,1.314-0.136,1.97-0.271,1.97c0.047,0.089,0.047,0.177,0.047,0.22l-0.093,0.351
			c0,0.044,0.046,0.088,0.093,0.088l-0.093,0.396l-0.09,3.24l0.183,0.569h-0.093l0.093,0.131v0.089
			c-0.047,0.043-0.047,0.087-0.093,0.087l0.046,0.175l-0.09,0.175c0.044,0.088,0.09,0.176,0.09,0.308h-0.09l0.09,0.174v0.788
			l-0.09,0.177c0.09,0.044,0.137,0.088,0.137,0.176v0.131c0,0.044-0.047,0.088-0.093,0.088l0.093,0.176v0.875l0.271,2.278h-0.09
			c0.09,0.263,0.181,0.699,0.226,1.312h-0.09l0.09,0.176c0,0.044-0.045,0.044-0.09,0.044c0.181,0.834,0.271,1.402,0.271,1.665
			l-0.091-0.044c0.726,2.848,1.721,4.249,2.944,4.292c0.906,0.045,1.541-0.307,1.858-1.007c0.316-0.656,0.544-1.007,0.679-1.095
			c0.045-0.482,0.136-1.052,0.317-1.796c0-0.043-0.046-0.088-0.091-0.088l0.182-0.965c-0.091-0.48-0.137-1.094-0.091-1.926
			l0.091-5.037h-0.726c-0.227-0.044-0.905,0.045-2.128,0.262c-0.771-0.13-1.27-0.262-1.405-0.438c0,0.044-0.045,0.088-0.091,0.088
			c0-0.133-0.046-0.175-0.136-0.175l0.09-0.352l-0.09-0.395c0.136,0,0.227-0.13,0.271-0.395c0.046,0,0.092,0.045,0.092,0.088
			c0.408-0.088,0.997-0.175,1.813-0.263v0.045c0.044-0.132,1.268-0.264,3.712-0.306c0,0.042,0.046,0.087,0.092,0.087
			c0-0.045,0.046-0.087,0.09-0.087c0.408,0.349,0.635,0.7,0.635,1.006c0,0.089-0.045,0.307-0.182,0.612
			c0.046,0.133,0.091,0.221,0.091,0.266H348.2l0.091,0.174l-0.045,0.132c0,0.043,0,0.088-0.046,0.088l0.046,0.175
			c0,0.043-0.046,0.087-0.091,0.087c0.136,0.175,0.182,0.351,0.182,0.481l-0.046,0.745c0,0.525-0.045,0.788-0.182,0.788l0.091,0.176
			c0,0.043-0.045,0.088-0.091,0.088c0.137,0.175,0.182,0.35,0.182,0.481l-0.045,0.657c0,0.656-0.046,0.963-0.181,0.963l0.09,0.132
			c0,0.044-0.046,0.088-0.09,0.088c0.135,0.263,0.226,0.964,0.181,2.059c0,0.131-0.046,0.525-0.181,1.095
			c0,0.044,0.044,0.087,0.09,0.087c-0.046,0.877-0.362,1.972-0.996,3.242c-1.042,1.228-2.311,1.796-3.805,1.752
			c-2.084-0.044-3.671-1.4-4.803-4.073l-0.271-1.227c0.046,0,0.091-0.044,0.091-0.089c-0.136,0-0.181-0.042-0.181-0.13
			c0-0.043,0.045-0.088,0.09-0.088c-0.045-0.131-0.136-0.481-0.226-1.052c0.044,0,0.09-0.042,0.09-0.087
			c-0.136,0-0.182-0.044-0.182-0.175v-0.175c-0.316-3.855-0.452-6.134-0.406-6.79v-0.438c0-0.131,0-0.22-0.046-0.307
			c0-0.043,0-0.087,0.046-0.087c-0.046-1.009-0.092-1.709-0.182-2.017c0.044-0.086,0.09-0.218,0.09-0.35
			c0-0.044-0.046-0.175-0.09-0.482h0.09c0-0.043-0.046-0.043-0.09-0.087l0.136-0.394c0-0.133,0.046-0.832,0.136-2.104h0.046
			c0-0.042,0-0.087-0.046-0.087c0.136-0.788,0.227-1.183,0.271-1.183c0-0.042-0.044-0.087-0.09-0.087l0.09-0.395l0.046-1.138
			c0-0.133,0.046-0.22,0.092-0.353l-0.092-0.13c0.589-2.584,1.314-4.381,2.22-5.389c0.906-1.226,2.22-1.839,3.987-1.795
			C345.301,87.968,346.389,88.275,347.521,88.844z"/>
		<path fill="#5B5C5C" d="M369.403,96.992c0.227,0.219,0.362,0.351,0.362,0.482h0.136l-0.046-0.177c0-0.042,0-0.087,0.046-0.087
			l-0.046-0.131v-0.088c0-0.043,0-0.087,0.046-0.087l-0.046-0.176v-0.481l-0.09-0.482c0.044-0.131,0.09-0.219,0.09-0.263
			l-0.09-0.131l0.09-0.175l-0.09-0.395l0.09-0.351c0-0.044-0.046-0.088-0.09-0.088l0.09-0.525v-0.832c0-0.132-0.046-0.22-0.09-0.308
			c0-0.043,0.044-0.087,0.09-0.087c-0.136-0.832-0.226-1.358-0.363-1.489c0-0.044,0.046-0.087,0.093-0.22l-0.093-0.394
			c0.046-0.13,0.093-0.22,0.093-0.263l-0.093-0.175c0.046-0.088,0.093-0.176,0.093-0.308l-0.182-0.262
			c0.406-0.964,0.77-1.447,1.086-1.447v0.089c0.228-0.131,0.453-0.176,0.681-0.176c0.136,0.045,0.182,0.087,0.182,0.176l0.181-0.089
			c0.271,0.22,0.407,0.483,0.407,0.746h-0.091c0.137,0.263,0.183,0.438,0.183,0.569l-0.183,0.088l0.091,0.394v0.088
			c0,0.132-0.046,0.219-0.091,0.307c0.045,0.306,0.137,0.481,0.183,0.481l-0.092,0.395c0,0.131,0.046,0.351,0.092,0.657
			c0,0.044-0.046,0.131-0.092,0.263c0.046,0.569,0.092,0.964,0.092,1.271v0.35c0,0.132,0.044,0.219,0.089,0.219l-0.089,0.438v1.753
			c0,0.131,0.044,0.263,0.089,0.35l-0.089,0.132c0.044,0.132,0.089,0.22,0.089,0.351l-0.181,0.087
			c0.046,0.044,0.136,0.482,0.181,1.359l-0.089,0.35c0,0.045,0.044,0.045,0.089,0.045l-0.089,0.831v0.657
			c0,0.043-0.046,0.088-0.092,0.088l0.181,0.964c-0.045,0.087-0.089,0.175-0.089,0.306v0.569c0,0.044-0.046,0.087-0.092,0.087
			c0,0.044,0.046,0.088,0.092,0.088l-0.092,0.395v0.088c0,0.132,0.046,0.219,0.092,0.307c-0.046,0.133-0.092,0.22-0.092,0.263
			c0,0.044,0.046,0.087,0.092,0.087l-0.092,0.307c0.046,1.666,0.092,2.717,0.092,3.155c-0.046,0.612-0.092,0.92-0.183,0.92
			l0.091,0.131v1.402c0,0.043-0.046,0.087-0.091,0.087l0.091,0.131c0.046,1.183,0.092,1.972,0.092,2.365h-0.092l0.092,0.176
			l-0.092,0.395c0.046,0.306,0.092,0.526,0.092,0.657h-0.092l0.092,0.131v0.657l0.089,0.481c-0.045,0.132-0.089,0.22-0.089,0.263
			c0.044,0.087,0.089,0.176,0.089,0.22h-0.089l0.089,0.174v0.088c0,0.176-0.045,0.308-0.089,0.395l0.135,1.446
			c-0.091,0.218-0.135,0.525-0.135,0.92l0.089,0.175h-0.089l0.089,0.131c0,0.482-0.406,0.921-1.268,1.227
			c-0.68-0.088-0.997-0.218-0.997-0.394c0.046,0,0.046-0.044,0.046-0.088c-0.136,0-0.227-0.044-0.227-0.176h0.091l-0.091-0.175
			c0.135-0.175,0.181-0.395,0.181-0.613v-1.972l-0.09-0.481l0.09-0.175c0-0.044-0.046-0.044-0.09-0.044l0.09-0.438
			c0-0.044-0.046-0.133-0.09-0.22c0.044-0.087,0.09-0.219,0.09-0.35l-0.09-0.132c0-0.044,0.044-0.088,0.09-0.088l-0.09-0.394
			c0-0.176,0.044-0.264,0.09-0.264c-0.09-1.97-0.181-2.935-0.271-2.935l0.181-1.533c-0.046-0.087-0.091-0.174-0.091-0.219
			l0.181-0.35c-0.046-0.351-0.09-0.658-0.09-0.876h0.09l-0.09-0.176c0-0.044,0.044-0.088,0.09-0.088l-0.09-0.132v-0.175
			c0-0.043,0.044-0.087,0.09-0.087c0-0.045-0.046-0.09-0.09-0.09c0-0.042,0.044-0.13,0.09-0.217c0-0.395-0.046-1.095-0.181-2.103
			l0.181-0.088l-0.09-0.176v-0.306l0.09-0.177l-0.181-0.088c0.135-0.262,0.181-0.568,0.181-0.963l-0.09-0.569
			c0-0.043,0.044-0.086,0.09-0.086c-0.046-1.01-0.226-1.534-0.452-1.534c0.045,0,0.089-0.044,0.089-0.089l-3.85-4.379
			c-1.767-1.971-2.808-3.11-3.171-3.329l-1.495-1.357h-0.09c0,0.263-0.046,0.569-0.091,0.964l0.317,4.729h-0.091l0.091,0.131v0.395
			c0,0.044-0.045,0.087-0.091,0.087c0.046,0.133,0.137,0.527,0.182,1.228h-0.091l0.091,0.175v0.087c0,0.045-0.045,0.045-0.091,0.045
			c0.046,0.219,0.136,0.351,0.181,0.351l-0.09,0.394v0.745c0,0.263,0.045,0.657,0.09,1.226h-0.09l0.09,0.134v1.137
			c0,0.133,0.046,0.22,0.091,0.352l-0.091,0.13c0.046,0.088,0.091,0.221,0.091,0.352h-0.091l0.091,0.132v0.832
			c0,0.133,0.045,0.22,0.091,0.307c0,0.043-0.046,0.087-0.091,0.087l0.091,0.395v0.92c0,0.22-0.046,0.481-0.091,0.877
			c0.045,0.042,0.091,0.263,0.091,0.569h-0.091l0.091,0.174v0.877c0,0.306,0,0.744,0.045,1.357h-0.045l0.045,0.176v1.05
			c0,0.263,0,0.526-0.045,0.833c0.045,0.745,0.091,1.14,0.136,1.271l-0.091,0.176c0.046,0.394,0.137,0.613,0.182,0.743
			c0,0.045-0.045,0.089-0.091,0.089c0.181,1.095,0.271,1.883,0.271,2.322c0,0.876-0.226,1.4-0.679,1.619
			c-0.045,0-0.091-0.043-0.091-0.087c-0.182,0.131-0.317,0.176-0.408,0.176v-0.089l-0.181,0.089
			c-0.588-0.132-0.906-0.483-0.906-0.964v-0.263c0-0.044,0.045-0.088,0.091-0.088c-0.046-0.088-0.136-0.394-0.182-0.965h0.091
			c-0.226-0.744-0.316-1.27-0.316-1.533l0.045-0.174c-0.045-0.088-0.045-0.175-0.045-0.22l0.045-0.175
			c-0.045-0.088-0.045-0.175-0.045-0.219l0.045-0.176c0-0.044,0-0.087-0.045-0.087l0.045-0.307
			c-0.091-0.482-0.137-0.789-0.137-0.833h0.092l-0.092-0.175c0-0.044,0.046-0.044,0.092-0.044l-0.092-0.175v-0.176
			c0-0.263,0.046-0.525,0.092-0.788l-0.092-0.438c0-0.045,0.046-0.132,0.092-0.219l-0.182-1.228c0.136,0,0.182-0.043,0.182-0.176
			c-0.137,0-0.182-0.043-0.182-0.13c0.136-0.176,0.182-0.308,0.182-0.438l-0.092-0.308c0-0.043,0.046-0.087,0.092-0.087
			l-0.092-0.569v-1.271l-0.09-0.569h0.09l-0.09-0.176v-0.788l-0.091-0.438h0.091l-0.091-0.132c0.045-0.132,0.091-0.22,0.091-0.262
			c0-0.045-0.046-0.089-0.091-0.089c0.045-0.438,0.091-0.657,0.181-0.657l-0.181-0.481l0.091-0.131
			c-0.046-0.132-0.091-0.219-0.091-0.264l0.091-0.175c-0.136-0.264-0.182-0.438-0.182-0.569l0.091-0.132
			c-0.045-0.13-0.091-0.22-0.091-0.351c0-0.043,0.046-0.087,0.091-0.087l-0.091-0.131v-0.658c0-0.306-0.046-0.744-0.09-1.401
			l0.181-0.045c-0.045-0.13-0.091-0.48-0.181-1.137h0.09l-0.09-0.176c0-0.044,0.044-0.088,0.09-0.088l-0.09-0.176v-0.964
			c0-0.13-0.045-0.219-0.091-0.306c0-0.044,0.046-0.088,0.091-0.088c-0.091-0.656-0.137-1.357-0.137-2.016h0.046
			c-0.046-0.13-0.091-0.48-0.137-0.963h0.091l-0.182-0.919c0.046-0.22,0.091-0.308,0.182-0.308
			c-0.045-0.045-0.136-0.481-0.182-1.228h0.091l-0.091-0.174c0-0.132-0.044-0.657-0.09-1.533c0.046-0.438,0.363-0.833,0.861-1.227
			h0.045l0.181,0.087c0.182-0.087,0.499-0.175,0.907-0.218C364.012,91.036,367.002,94.145,369.403,96.992z"/>
	</g>
</g>
</svg>
