<?xml version="1.0" encoding="UTF-8" standalone="no"?>
<svg width="178px" height="27px" viewBox="0 0 178 27" version="1.1" xmlns="http://www.w3.org/2000/svg" xmlns:xlink="http://www.w3.org/1999/xlink" xmlns:sketch="http://www.bohemiancoding.com/sketch/ns">
    <!-- Generator: Sketch 3.0.4 (8053) - http://www.bohemiancoding.com/sketch -->
    <title>Untitled 3</title>
    <desc>Created with Sketch.</desc>
    <defs></defs>
    <g id="Page-1" stroke="none" stroke-width="1" fill="none" fill-rule="evenodd" sketch:type="MSPage">
        <path d="M13.5,27 C20.9558441,27 27,20.9558441 27,13.5 C27,6.04415588 20.9558441,0 13.5,0 C6.04415588,0 0,6.04415588 0,13.5 C0,20.9558441 6.04415588,27 13.5,27 Z M17.89575,11.1517835 L14.6955,11.1517835 L14.6955,9.61439219 C14.6955,9.61439219 14.51625,8.15239219 15.5535,8.15239219 L17.66175,8.15239219 L17.66175,5.00000088 L14.07225,5.00000088 C14.07225,5.00000088 11.0685,4.98743567 11.0685,7.96021827 C11.0685,8.59882697 11.0655,9.76147914 11.061,11.1517835 L9,11.1517835 L9,13.6899574 L11.05575,13.6899574 C11.04375,17.7256096 11.0295,22.2232183 11.0295,22.2232183 L14.6955,22.2232183 L14.6955,13.6899574 L17.115,13.6899574 L17.89575,11.1517835 Z" id="Oval-1" fill="#5B5B5B" sketch:type="MSShapeGroup"></path>
        <path d="M63.5,27 C70.9558441,27 77,20.9558441 77,13.5 C77,6.04415588 70.9558441,0 63.5,0 C56.0441559,0 50,6.04415588 50,13.5 C50,20.9558441 56.0441559,27 63.5,27 Z M70.4046371,10.8144448 C69.9323038,7.39273407 66.5176371,5.65049679 62.8754704,6.05846167 C59.9959704,6.38093789 57.1251371,8.70644591 57.0059704,12.0318466 C56.9333871,14.0619318 57.5097204,15.5855778 59.4434704,16.0130211 C60.2808871,14.5326605 59.1737204,14.2091022 59.0003871,13.1367064 C58.2908038,8.75405984 64.0617204,5.76087456 67.0842204,8.82331648 C69.1761371,10.944301 67.7981371,17.4652462 64.4268038,16.7867476 C61.1973871,16.1396309 66.0084704,10.9486295 63.4312204,9.93034054 C61.3360538,9.10142516 60.2234704,12.4625363 61.2168871,14.1333527 C60.6340538,17.006421 59.3795538,19.7117584 59.8876371,23.3141857 C61.5343038,22.1205908 62.0900538,19.8351218 62.5450538,17.4511785 C63.3727204,17.9543712 63.8158038,18.4759603 64.8709704,18.5571204 C68.7633871,18.8579539 70.9387204,14.6755023 70.4046371,10.8144448 Z" id="Oval-2" fill="#5B5B5B" sketch:type="MSShapeGroup"></path>
        <path d="M164.5,27 C171.955844,27 178,20.9558441 178,13.5 C178,6.04415588 171.955844,0 164.5,0 C157.044156,0 151,6.04415588 151,13.5 C151,20.9558441 157.044156,27 164.5,27 Z M173,18 C173,18.3505938 172.901375,18.6757812 172.743156,18.9619062 L167.691406,13.3095625 L172.688469,8.9375 C172.882812,9.24609375 173,9.60840625 173,10 L173,18 Z M165,14.3359375 L171.953125,8.25196875 C171.667969,8.09571875 171.346687,8 171,8 L159,8 C158.652844,8 158.331531,8.09571875 158.047375,8.25196875 L165,14.3359375 L165,14.3359375 Z M166.938469,13.9677812 L165.329094,15.3769687 C165.234875,15.459 165.117687,15.5 165,15.5 C164.882313,15.5 164.765125,15.4589687 164.670906,15.3769375 L163.061031,13.96775 L157.945312,19.692375 C158.251969,19.8847812 158.611344,20 159,20 L171,20 C171.388688,20 171.748063,19.88475 172.054688,19.692375 L166.938469,13.9677812 L166.938469,13.9677812 Z M157.311531,8.9375 C157.117188,9.24609375 157,9.60840625 157,10 L157,18 C157,18.3505938 157.098156,18.6757812 157.256844,18.9619062 L162.308125,13.3085938 L157.311531,8.9375 L157.311531,8.9375 Z" id="Oval-4" fill="#5B5B5B" sketch:type="MSShapeGroup"></path>
        <path d="M113.5,27 C120.955844,27 127,20.9558441 127,13.5 C127,6.04415588 120.955844,0 113.5,0 C106.044156,0 100,6.04415588 100,13.5 C100,20.9558441 106.044156,27 113.5,27 Z M122.982527,8.65654054 C122.320873,8.93754955 121.609873,9.12753754 120.863532,9.21296697 C121.625327,8.7756036 122.210283,8.08342342 122.485683,7.25834835 C121.772795,7.66312913 120.98321,7.9572973 120.142917,8.11558559 C119.46998,7.42895495 118.511151,7 117.449941,7 C115.412605,7 113.7606,8.58183183 113.7606,10.5328348 C113.7606,10.8097237 113.793351,11.0793814 113.856307,11.3380661 C110.790161,11.1905826 108.071634,9.78415015 106.252098,7.64656456 C105.934463,8.16847447 105.752532,8.77530931 105.752532,9.42284084 C105.752532,10.6484505 106.403693,11.7298979 107.393693,12.3634715 C106.788849,12.3450991 106.220005,12.1860961 105.722678,11.9215255 C105.722327,11.9363243 105.722327,11.9511231 105.722327,11.966048 C105.722327,13.6777898 106.994137,15.1055796 108.68179,15.4302703 C108.372234,15.5108649 108.046259,15.5542523 107.70979,15.5542523 C107.472102,15.5542523 107.240912,15.5320541 107.015561,15.4906847 C107.485098,16.8943423 108.847654,17.9158378 110.462078,17.9442162 C109.199356,18.89197 107.608595,19.4567628 105.880112,19.4567628 C105.582234,19.4567628 105.288615,19.44003 105,19.4071532 C106.632644,20.4097718 108.571859,20.9945766 110.655337,20.9945766 C117.44138,20.9945766 121.152146,15.6112192 121.152146,10.9424084 C121.152146,10.7893754 121.148546,10.636973 121.141522,10.4853694 C121.862488,9.9872973 122.487922,9.36503303 122.982527,8.65654054 Z" id="Oval-3" fill="#5B5B5B" sketch:type="MSShapeGroup"></path>
    </g>
</svg>