<?xml version="1.0" encoding="UTF-8" standalone="no"?>
<svg width="144px" height="28px" viewBox="0 0 144 28" version="1.1" xmlns="http://www.w3.org/2000/svg" xmlns:xlink="http://www.w3.org/1999/xlink" xmlns:sketch="http://www.bohemiancoding.com/sketch/ns">
    <!-- Generator: Sketch 3.0.4 (8053) - http://www.bohemiancoding.com/sketch -->
    <title>Untitled 2</title>
    <desc>Created with Sketch.</desc>
    <defs>
        <path id="path-1" d="M0,-0.0985856517 L142,-0.0985856517 L142,26.1868137 L0,26.1868137 L0,-0.0985856517 Z"></path>
    </defs>
    <g id="Page-1" stroke="none" stroke-width="1" fill="none" fill-rule="evenodd" sketch:type="MSPage">
        <g id="Imported-Layers" sketch:type="MSLayerGroup" transform="translate(1.000000, 1.000000)">
            <mask id="mask-2" sketch:name="Clip 2" fill="white">
                <use xlink:href="#path-1"></use>
            </mask>
            <g id="Clip-2"></g>
            <path d="M137.009317,8.1826399 C137.009317,8.10870066 136.935378,8.07173104 136.787191,8.07173104 C136.59002,8.07173104 136.491742,8.10870066 136.491742,8.1826399 C136.491742,8.25657914 136.59002,8.29354876 136.787191,8.29354876 C136.935378,8.29354876 137.009317,8.25657914 137.009317,8.1826399 L137.009317,8.1826399 Z M131.537813,8.99597153 C131.414581,8.99597153 131.353273,9.06991077 131.353273,9.21778924 C131.353273,9.36566772 131.414581,9.43960696 131.537813,9.43960696 C131.587106,9.43960696 131.611753,9.36566772 131.611753,9.21778924 C131.611753,9.06991077 131.587106,8.99597153 131.537813,8.99597153 L131.537813,8.99597153 Z M130.539634,9.77233353 C130.539634,9.69839429 130.502972,9.66142468 130.429033,9.66142468 C130.379124,9.66142468 130.354786,9.69839429 130.354786,9.77233353 C130.354786,9.89587368 130.379124,9.95718163 130.429033,9.95718163 C130.502972,9.95718163 130.539634,9.89587368 130.539634,9.77233353 L130.539634,9.77233353 Z M115.308459,7.9977918 C115.234211,7.9977918 115.196934,8.05971592 115.196934,8.1826399 C115.196934,8.30618004 115.234211,8.367488 115.308459,8.367488 C115.406428,8.367488 115.456337,8.30618004 115.456337,8.1826399 C115.456337,8.05971592 115.406428,7.9977918 115.308459,7.9977918 L115.308459,7.9977918 Z M89.614265,17.7208017 C89.5156793,17.7208017 89.4663865,17.7827258 89.4663865,17.9056498 C89.4663865,18.0538364 89.5156793,18.1274675 89.614265,18.1274675 C89.7125426,18.1274675 89.7624515,18.0538364 89.7624515,17.9056498 C89.7624515,17.7827258 89.7125426,17.7208017 89.614265,17.7208017 L89.614265,17.7208017 Z M82.2942803,7.2214298 C84.8824618,8.45405852 87.2235629,9.55051582 89.3181999,10.5117259 C90.2057789,10.931023 91.0933578,11.3315272 91.9803206,11.7132386 C92.8678996,12.095566 93.680615,12.4406158 94.4203155,12.7483879 C95.1597079,13.0567761 95.7878833,13.3029322 96.3060742,13.4877803 C96.8236488,13.6726284 97.1683905,13.7653605 97.3409154,13.7653605 C97.4638394,13.7653605 97.6184957,13.7157596 97.8030357,13.617174 C97.9878838,13.5192045 98.1665703,13.4079875 98.3390952,13.2844474 C98.5359584,13.1365689 98.7334378,12.9643521 98.9306091,12.7668727 C99.0288866,12.6685951 99.0168715,12.5265702 98.8933314,12.3417221 C98.7700993,12.156874 98.6098976,11.9784956 98.4133425,11.8056626 C98.2152469,11.6334458 98.0183837,11.4855673 97.8218286,11.3620272 C97.623733,11.2387951 97.5131322,11.1771791 97.489102,11.1771791 C96.601523,10.3395091 95.6646513,9.5631471 94.6791028,8.84809305 C93.6932463,8.13334707 92.6577889,7.51133323 91.5736548,6.98112727 C90.4885965,6.45122939 89.349008,6.03254845 88.153965,5.72416021 C86.9583059,5.41638813 85.7201317,5.26203997 84.4382102,5.26203997 L83.2554904,5.26203997 C82.8611478,5.36062562 82.6023605,5.58275142 82.4791284,5.92749312 C82.3558964,6.27285098 82.2942803,6.64254717 82.2942803,7.0365817 L82.2942803,7.2214298 Z M82.1464019,8.1826399 C82.1464019,9.85890406 82.5404364,11.1651639 83.3294297,12.1014196 C84.1181149,13.0382913 85.1039714,13.7280828 86.2866912,14.1717182 C87.469719,14.6153537 88.7639637,14.8867723 90.1691174,14.9850499 C91.5736548,15.0836355 92.8919298,15.1329283 94.1248666,15.1329283 C94.5435476,15.0349589 95.0118294,14.9055652 95.529096,14.7447473 C96.0472868,14.5848537 96.4533365,14.4554601 96.7494015,14.3568744 C96.1332412,13.9378854 95.4557729,13.6356588 94.7163805,13.4508107 C93.9766801,13.2659626 93.2745654,13.0382913 92.6091122,12.7668727 C91.105373,12.2742525 89.6570881,11.6704154 88.2645658,10.9553614 C86.8723515,10.2409235 85.4739757,9.52617748 84.0688221,8.81112343 C83.649525,8.61395213 83.3106368,8.45991205 83.0518495,8.34900319 C82.7933702,8.23809433 82.4911436,8.1826399 82.1464019,8.1826399 L82.1464019,8.1826399 Z M81.5182264,10.1789993 C81.4190246,10.1789993 81.3700399,10.2529386 81.3700399,10.4008171 C81.3700399,10.5243572 81.4190246,10.5856652 81.5182264,10.5856652 C81.6408423,10.5856652 81.7027664,10.5243572 81.7027664,10.4008171 C81.7027664,10.2529386 81.6408423,10.1789993 81.5182264,10.1789993 L81.5182264,10.1789993 Z M79.4842812,7.62809561 C78.9423682,7.62809561 78.4180157,7.69618132 77.9133804,7.83142852 C77.4078209,7.96729187 76.9644935,8.16415509 76.5821661,8.42294243 C76.2001467,8.68172976 75.8988443,9.00860281 75.6767185,9.40263734 C75.4545927,9.79728803 75.3439919,10.2655699 75.3439919,10.8074829 C75.3439919,11.8922331 75.4419614,12.637479 75.6400569,13.0441448 C75.8366121,13.4508107 76.0953994,13.7222293 76.4161109,13.8571684 C76.7362061,13.9933398 77.0871094,14.0857639 77.469745,14.1347486 C77.8517644,14.1843495 78.2146828,14.393536 78.5600407,14.7632322 C78.5600407,14.8867723 78.5353943,14.9665651 78.4867176,15.0035347 C78.4368086,15.0401962 78.3875158,15.0836355 78.3388391,15.1329283 C78.1167133,15.1329283 77.7839868,15.1021203 77.3403513,15.0401962 C76.897024,14.9791963 76.4401411,14.8682875 75.9727835,14.7077777 C75.5038855,14.5478841 75.0972197,14.3260664 74.752478,14.0423246 C74.4071201,13.7591989 74.2349033,13.3950482 74.2349033,12.9517208 L74.2349033,9.99415125 C74.2349033,9.79728803 74.2962113,9.58163191 74.4197514,9.34718291 C74.5429835,9.11335007 74.6905539,8.88506267 74.8630788,8.66324495 C75.0359117,8.44142724 75.2266134,8.23809433 75.436724,8.05324623 C75.6452943,7.86839814 75.8245969,7.72698934 75.9727835,7.62809561 C76.070753,7.62809561 76.2368082,7.59759567 76.4715653,7.53567156 C76.7057062,7.47436361 76.9457007,7.40627789 77.1924729,7.33233865 C77.4386289,7.25839942 77.6666082,7.19092986 77.8767189,7.12900575 C78.0852892,7.0676978 78.2399454,7.0365817 78.3388391,7.0365817 C78.8314593,6.93830413 79.2563019,6.74698635 79.6136749,6.4635526 C79.9710478,6.18042693 80.3219511,5.8905235 80.6679252,5.59476654 C81.0126669,5.29900959 81.382055,5.03436873 81.7770137,4.79991973 C82.1704321,4.56608688 82.6639765,4.44870834 83.2554904,4.44870834 C84.8571992,4.44870834 86.3982162,4.60274842 87.8766929,4.91082858 C89.3554776,5.21921683 90.7972928,5.73062989 92.2024464,6.44506779 C92.2264767,6.44506779 92.36234,6.51900703 92.6091122,6.6668855 C92.8552683,6.81476398 93.1319243,6.98759695 93.4406206,7.18446018 C93.7487007,7.38193956 94.0561647,7.57911086 94.3648611,7.77597409 C94.6729412,7.97345347 94.9249508,8.10870066 95.1230463,8.1826399 C95.4924345,8.38011928 95.8806155,8.68172976 96.2872813,9.08839557 C96.6942552,9.49506139 97.100921,9.89587368 97.5069706,10.2899082 C97.9139445,10.6845589 98.3079791,11.0293006 98.6906146,11.3250575 C99.0720179,11.6208145 99.4115222,11.768693 99.7069711,11.768693 C100.027066,11.768693 100.267061,11.4978905 100.427879,10.9553614 C100.587772,10.4134483 100.705151,9.84041925 100.77909,9.23627405 C100.853337,8.63243694 100.889999,8.12133195 100.889999,7.70203485 L100.889999,7.44324751 C100.889999,7.14749056 100.858575,6.87668809 100.797883,6.62991589 C100.735959,6.38375984 100.569287,6.26021969 100.298485,6.26021969 C100.003036,6.26021969 99.7310013,6.33415893 99.4848453,6.48203741 C99.2386892,6.62991589 99.0048564,6.78395597 98.7827306,6.94415765 C98.5606048,7.10466741 98.357888,7.25839942 98.1724238,7.40627789 C97.9878838,7.55415637 97.8218286,7.62809561 97.673642,7.62809561 C97.5257635,7.62809561 97.4456627,7.6096108 97.4336476,7.57264118 C97.4204001,7.53567156 97.3902083,7.49284842 97.3409154,7.44324751 C97.3409154,7.14749056 97.4271779,6.87021841 97.5997028,6.61143108 C97.7719196,6.35264374 97.9878838,6.1188109 98.2466711,5.90900831 C98.5054584,5.69982188 98.7827306,5.53931211 99.0787956,5.42840326 C99.3742445,5.3174944 99.645047,5.26203997 99.8918192,5.26203997 C100.285854,5.26203997 100.61858,5.36062562 100.889999,5.55779692 C101.160801,5.75527631 101.382619,6.00759396 101.555452,6.31567412 C101.727669,6.62406236 101.851517,6.96264246 101.925456,7.33233865 C101.998779,7.70203485 102.036057,8.04739271 102.036057,8.367488 C102.036057,8.71284586 101.955648,9.05142596 101.795446,9.38415253 C101.635553,9.7168791 101.456866,10.0437522 101.260003,10.3638474 C101.061908,10.6845589 100.883837,10.992331 100.723944,11.2880879 C100.563126,11.5838449 100.483025,11.8796018 100.483025,12.1753588 C100.483025,12.3481918 100.668489,12.5080854 101.037877,12.6559638 C101.407265,12.8038423 101.882017,12.9458673 102.4609,13.0811145 C103.039782,13.2166697 103.66272,13.3399018 104.328173,13.4508107 C104.993627,13.5617195 105.627964,13.6538355 106.232109,13.7280828 C106.835638,13.802022 107.359682,13.8639462 107.80301,13.9129309 C108.247261,13.9625318 108.518064,13.9865621 108.616649,13.9865621 C109.208163,13.9865621 109.836955,13.8947542 110.502408,13.709598 C111.167861,13.5244418 111.789567,13.260109 112.369066,12.9147512 C112.94764,12.5700095 113.422392,12.1325357 113.792704,11.6023297 C114.162092,11.0724318 114.346632,10.4624331 114.346632,9.77233353 C114.346632,9.50153107 114.316132,9.20577412 114.254824,8.88506267 C114.192592,8.56496738 114.088153,8.26921043 113.940583,7.9977918 C113.792704,7.72698934 113.589063,7.49870194 113.330584,7.31385384 C113.071797,7.12900575 112.744307,7.0365817 112.350889,7.0365817 C111.931592,7.0365817 111.598865,7.16597537 111.352709,7.4247627 C111.105937,7.68355004 110.982705,7.9977918 110.982705,8.367488 C110.982705,8.66324495 111.013205,8.84809305 111.075129,8.92203229 C111.136745,8.99597153 111.198053,9.03294115 111.259977,9.03294115 C111.321285,9.03294115 111.383209,9.04557243 111.444825,9.06991077 C111.506133,9.09455718 111.537249,9.21778924 111.537249,9.43960696 C111.537249,9.61243993 111.494118,9.71102558 111.407856,9.73536391 C111.321285,9.76031841 111.179876,9.77233353 110.982705,9.77233353 C110.662302,9.77233353 110.452499,9.65557115 110.354221,9.42112215 C110.255636,9.18728931 110.206343,8.93466357 110.206343,8.66324495 C110.206343,7.94880706 110.415837,7.36930827 110.835135,6.92567284 C111.253816,6.48203741 111.808052,6.26021969 112.498151,6.26021969 C112.794216,6.26021969 113.145736,6.29718931 113.551785,6.37112855 C113.958759,6.44506779 114.352794,6.56860793 114.734813,6.74082474 C115.116833,6.91334963 115.44309,7.14163703 115.715124,7.4247627 C115.985927,7.70819645 116.121174,8.05971592 116.121174,8.47839685 L116.121174,8.66324495 C115.997942,9.69839429 115.708347,10.5856652 115.253004,11.3250575 C114.796121,12.0644499 114.217547,12.6744487 113.515124,13.1550537 C112.813009,13.6356588 112.018162,13.9865621 111.130583,14.2086879 C110.243621,14.4305056 109.31938,14.5414144 108.357862,14.5414144 C107.248773,14.5414144 106.170493,14.48596 105.12302,14.3750511 C104.075548,14.2641423 103.04656,14.0608094 102.036057,13.7653605 C101.666053,13.617174 101.333326,13.4819268 101.037877,13.3583866 C100.766459,13.260109 100.520611,13.167685 100.298485,13.0811145 C100.076975,12.9951601 99.941112,12.9517208 99.8918192,12.9517208 C99.8422183,12.9517208 99.7562639,12.9886904 99.6330318,13.0626297 C99.5094917,13.1365689 99.3742445,13.2351545 99.2260579,13.3583866 C99.0787956,13.4819268 98.949402,13.6113204 98.838185,13.7465676 C98.7272762,13.8821229 98.6721298,14.0115166 98.6721298,14.1347486 L105.807266,16.5008043 C106.521396,16.722622 107.323021,16.8520156 108.209984,16.8886772 C109.097254,16.9259549 109.934924,16.9444397 110.723918,16.9444397 C111.832698,16.9444397 112.997857,16.8705005 114.217547,16.722622 C115.437544,16.5747435 116.657233,16.3406026 117.877539,16.0201992 C119.097228,15.700412 120.267625,15.3057613 121.389961,14.8371714 C122.510757,14.3695057 123.515098,13.8146533 124.402677,13.1735385 C125.388225,12.4341461 126.34389,11.7258698 127.26813,11.0477854 C128.192371,10.3703171 129.13448,9.77880322 130.096306,9.27324367 C131.057208,8.76830029 132.067403,8.367488 133.127507,8.07173104 C134.187303,7.77597409 135.357699,7.62809561 136.639929,7.62809561 C137.329412,7.62809561 137.908911,7.68355004 138.376885,7.7944589 C138.845167,7.90536775 139.264464,8.09021585 139.63416,8.34900319 C140.004164,8.60779052 140.367391,8.93466357 140.725072,9.3286981 C141.081829,9.72304071 141.507287,10.215969 141.999908,10.8074829 C141.975261,10.931023 141.969408,11.0542551 141.982039,11.1771791 C141.994054,11.3007192 141.86466,11.3620272 141.593858,11.3620272 C140.706279,10.869407 139.775877,10.5181956 138.802344,10.308393 C137.828194,10.0992066 136.799823,9.99415125 135.715688,9.99415125 C134.581337,9.99415125 133.55235,10.0807218 132.628109,10.2529386 C131.703869,10.4257716 130.816906,10.6722357 129.966913,10.992331 C129.116611,11.3130424 128.278325,11.707385 127.45267,12.1753588 C126.626708,12.6436406 125.745598,13.1735385 124.809343,13.7653605 C122.714398,14.9480802 120.446928,15.9034368 118.006933,16.6298899 C115.566938,17.3575752 113.139266,17.7208017 110.723918,17.7208017 C109.047345,17.7208017 107.42746,17.5116153 105.862413,17.0920101 C104.296749,16.6733292 102.713833,16.2179867 101.111817,15.7244423 C100.61858,15.6015183 100.08899,15.435155 99.522123,15.2253524 C98.9549474,15.016166 98.4007112,14.8621259 97.8584901,14.7632322 C97.193037,14.935757 96.5700989,15.1021203 95.9912162,15.262322 C95.4123336,15.4228318 94.8331429,15.5707103 94.2542603,15.7056494 C93.6747615,15.8418208 93.0712325,15.94626 92.4424409,16.0201992 C91.8142654,16.0941384 91.105373,16.1311081 90.3163797,16.1311081 L90.3163797,19.1256472 L89.9836531,19.4953434 C89.737189,19.2984802 89.5215329,19.0766625 89.3369928,18.8298903 C89.1521447,18.5837342 88.9728421,18.336962 88.8009334,18.0904979 C88.6281004,17.8443418 88.45003,17.5975696 88.2645658,17.3507974 C88.0800258,17.1049495 87.8640616,16.8834398 87.6179055,16.6856524 C86.9274979,16.0698001 86.1141663,15.4536398 85.1779107,14.8371714 C84.2410389,14.2213191 83.3540761,13.5743508 82.5164061,12.8962664 C81.67812,12.2187981 80.963374,11.4670825 80.3718601,10.6411196 C79.7803462,9.81577284 79.4842812,8.87304754 79.4842812,7.81294371 L79.4842812,7.62809561 Z M69.4658224,9.18081962 C69.4658224,8.90970908 69.5770393,8.70668425 69.798549,8.5708209 C70.0206748,8.43557371 70.2292451,8.367488 70.4273406,8.367488 C70.7468197,8.367488 71.0240919,8.39860409 71.258849,8.45991205 C71.4929899,8.52183616 71.6103684,8.7618306 71.6103684,9.18081962 C71.6103684,9.37829901 71.5296514,9.59395512 71.3694497,9.82778796 C71.20894,10.062237 71.0308696,10.1789993 70.8333902,10.1789993 C70.5379414,10.1789993 70.2360228,10.0865753 69.9279427,9.9017272 C69.6198625,9.7168791 69.4658224,9.47657658 69.4658224,9.18081962 L69.4658224,9.18081962 Z M68.9115862,21.8613991 C68.9115862,21.6645359 68.9171316,21.4119101 68.9297629,21.1035219 C68.9417781,20.7957498 68.9910709,20.4935232 69.0776414,20.1977662 C69.1635958,19.9023173 69.2929894,19.6493835 69.4658224,19.4401971 C69.6377311,19.2307026 69.8965185,19.1256472 70.2418763,19.1256472 C70.5379414,19.1256472 70.7720823,19.2307026 70.9449153,19.4401971 C71.116824,19.6493835 71.2403641,19.9023173 71.3143034,20.1977662 C71.3882426,20.4935232 71.4310658,20.7957498 71.443697,21.1035219 C71.4557122,21.4119101 71.4621819,21.6645359 71.4621819,21.8613991 C71.4621819,22.0092776 71.4375354,22.3176658 71.3882426,22.7856396 C71.3389498,23.2539214 71.2650106,23.7409961 71.1661168,24.2459395 C71.0675312,24.7514991 70.9381375,25.2016042 70.7782439,25.5953306 C70.6174261,25.9896732 70.4393557,26.1868445 70.2418763,26.1868445 C69.9957203,26.1868445 69.7859177,25.9896732 69.6137009,25.5953306 C69.441176,25.2016042 69.3050046,24.7514991 69.2070351,24.2459395 C69.1084494,23.7409961 69.0342021,23.2539214 68.9849093,22.7856396 C68.9356165,22.3176658 68.9115862,22.0092776 68.9115862,21.8613991 L68.9115862,21.8613991 Z M68.2461331,4.07901215 C68.1472393,4.07901215 68.0979465,4.15295139 68.0979465,4.30082986 C68.0979465,4.3997236 68.1472393,4.44870834 68.2461331,4.44870834 C68.3441025,4.44870834 68.3933954,4.3997236 68.3933954,4.30082986 C68.3933954,4.15295139 68.3441025,4.07901215 68.2461331,4.07901215 L68.2461331,4.07901215 Z M68.0979465,3.85719443 C67.950068,3.85719443 67.8761288,3.93113367 67.8761288,4.07901215 C67.8761288,4.20255229 67.950068,4.26386024 68.0979465,4.26386024 C68.1721938,4.26386024 68.2088554,4.20255229 68.2088554,4.07901215 C68.2088554,3.93113367 68.1721938,3.85719443 68.0979465,3.85719443 L68.0979465,3.85719443 Z M66.693101,3.67234633 L66.2494655,2.82204509 L66.2494655,2.78507547 C66.2494655,2.71113623 66.3237128,2.67416661 66.4715913,2.67416661 L66.693101,2.67416661 C67.0871355,2.67416661 67.5252255,2.81002996 68.0055224,3.08083242 C68.4861275,3.35225105 68.837647,3.68497762 69.0588485,4.07901215 C69.0588485,3.93113367 69.0964343,3.62952319 69.1703735,3.17325647 C69.2443128,2.71760591 69.3422823,2.24901599 69.4658224,1.76841094 C69.5890545,1.28780588 69.7304633,0.856801737 69.8912811,0.474474257 C70.0511747,0.0927629367 70.2292451,-0.0985548437 70.4273406,-0.0985548437 C70.5746029,-0.0985548437 70.7166279,-0.0119843183 70.8521831,0.160232492 C70.9874303,0.333065463 71.0983392,0.529928686 71.1849097,0.751746402 C71.2708641,0.973564119 71.3389498,1.19538183 71.3882426,1.41719955 C71.4375354,1.63901727 71.4621819,1.79952703 71.4621819,1.8978046 L71.4621819,4.26386024 C71.6843077,4.16558267 71.9058173,4.03618901 72.127635,3.87567924 C72.3497608,3.71547756 72.577124,3.55558395 72.811881,3.39507419 C73.0454058,3.2348725 73.292178,3.09931723 73.5509654,2.98840838 C73.8094446,2.87749952 74.0870248,2.82204509 74.3830899,2.82204509 C74.5057058,2.82204509 74.6042914,2.83467637 74.6785387,2.85901471 C74.752478,2.8839692 74.7897557,2.95790844 74.7897557,3.08083242 C74.7897557,3.32760463 74.6169227,3.63537671 74.2715649,4.00507291 C73.926207,4.3747691 73.5327886,4.75709658 73.0888451,5.15113111 C72.6452097,5.54547372 72.2071197,5.92749312 71.7764236,6.29718931 C71.3448033,6.6668855 71.0308696,6.97527375 70.8333902,7.2214298 C70.3407701,7.2214298 70.013897,7.21557627 69.8540034,7.20294499 C69.6931856,7.19092986 69.5637919,6.99961208 69.4658224,6.62991589 L66.693101,3.67234633 Z M63.9203795,17.7208017 C63.9203795,17.203227 64.0922882,16.7780764 64.4376461,16.4453498 C64.7826959,16.1126233 65.2146243,15.94626 65.7321989,15.94626 C66.0030014,15.94626 66.1943192,16.0201992 66.30492,16.1677696 C66.4155207,16.3159562 66.4715913,16.4884811 66.4715913,16.6856524 C66.4715913,17.0060557 66.4583439,17.2586815 66.4343136,17.4435296 C66.4096672,17.6283777 66.2987584,17.7208017 66.101587,17.7208017 C65.5100731,17.7208017 65.1034073,17.5116153 64.8818977,17.0920101 C64.7826959,17.0920101 64.7272414,17.1662574 64.7152263,17.3141359 C64.702595,17.4623224 64.6964334,17.5975696 64.6964334,17.7208017 C64.6964334,18.1404069 64.8199736,18.4047397 65.0664377,18.5159566 C65.3125938,18.6265574 65.5960275,18.6820118 65.9167389,18.6820118 C66.6804697,18.6820118 67.3092613,18.5159566 67.8018815,18.1829219 C68.2948097,17.8501954 68.7014755,17.437676 69.022187,16.9444397 C69.3422823,16.4515114 69.5890545,15.91576 69.7618874,15.3362613 C69.9337962,14.7573786 70.0758211,14.2213191 70.18673,13.7280828 C70.2979469,13.2351545 70.3959164,12.8223271 70.482795,12.4896006 C70.5687494,12.156874 70.6861279,11.9905107 70.8333902,11.9905107 L71.055516,12.3971765 L71.055516,15.7244423 C71.055516,16.0698001 71.1722784,16.4265569 71.4070355,16.7965612 C71.6408684,17.1662574 71.9304637,17.5054537 72.2758216,17.8129177 C72.6205633,18.121614 72.9840979,18.3742397 73.3661173,18.5711029 C73.7481367,18.7685823 74.0870248,18.8668599 74.3830899,18.8668599 C74.87571,18.8668599 75.3005526,18.7990823 75.6579256,18.663527 C76.0156066,18.5285879 76.2682324,18.214038 76.4161109,17.7208017 L74.9746038,17.7208017 C74.87571,17.7208017 74.8199475,17.6468625 74.8079324,17.498984 C74.7953011,17.3507974 74.7897557,17.2161664 74.7897557,17.0920101 C74.7897557,16.8954549 74.87571,16.6856524 75.048543,16.4638346 C75.2204517,16.2420169 75.4052998,16.1311081 75.6027792,16.1311081 C76.0214602,16.1311081 76.3483332,16.2546482 76.5821661,16.5008043 C76.816307,16.7472684 76.9336855,17.079995 76.9336855,17.498984 C76.9336855,18.3123156 76.7177213,18.8486832 76.2867172,19.1071624 C75.855405,19.3659498 75.2946991,19.4953434 74.6042914,19.4953434 C74.037732,19.4953434 73.5448038,19.4026113 73.1261228,19.2180713 C72.7065176,19.0332232 72.331276,18.7929207 71.9982413,18.4971637 C71.6655148,18.2014068 71.3694497,17.8628267 71.1109705,17.4804992 C70.8521831,17.0987879 70.6242038,16.7106069 70.4273406,16.3159562 C69.983089,16.6117131 69.6198625,16.9444397 69.3364287,17.3141359 C69.052995,17.683524 68.7757228,18.0291899 68.5049204,18.3492852 C68.2335018,18.6699967 67.9007752,18.9404911 67.5064326,19.1626169 C67.1117819,19.3844346 66.5821921,19.4953434 65.9167389,19.4953434 C65.3994724,19.4953434 64.9373521,19.3234347 64.5303782,18.9780768 C64.1237124,18.632719 63.9203795,18.214038 63.9203795,17.7208017 L63.9203795,17.7208017 Z M51.831314,15.5023165 C51.7570666,15.5023165 51.7204051,15.5765638 51.7204051,15.7244423 C51.7204051,15.8723207 51.7570666,15.94626 51.831314,15.94626 C51.954546,15.94626 52.0164701,15.8723207 52.0164701,15.7244423 C52.0164701,15.5765638 51.954546,15.5023165 51.831314,15.5023165 L51.831314,15.5023165 Z M44.2158804,13.9865621 C44.3877892,14.2826271 44.6280917,14.5170761 44.936788,14.689601 C45.244252,14.8621259 45.5896099,14.9976812 45.9716293,15.0959587 C46.3536487,15.1948525 46.7479913,15.262322 47.1546571,15.2992916 C47.5613229,15.3362613 47.9368726,15.3547461 48.2822305,15.3547461 C49.3666727,15.3547461 50.5493924,15.2435291 51.831314,15.0220195 C53.1129274,14.8002018 54.3085865,14.4120208 55.417367,13.8571684 C56.5264556,13.3029322 57.4565496,12.5700095 58.2088814,11.6577841 C58.9602889,10.7461749 59.3364548,9.58748544 59.3364548,8.1826399 C58.3009974,8.1826399 57.1118079,8.38011928 55.7688865,8.77415381 C54.4250408,9.1688045 53.0513114,9.66142468 51.6464659,10.2529386 C50.2413122,10.8444525 48.8857595,11.4794057 47.5801158,12.156874 C46.2732398,12.8349584 45.1521361,13.4452652 44.2158804,13.9865621 L44.2158804,13.9865621 Z M42.1819352,11.9905107 C42.3301218,12.2372829 42.4780003,12.4467774 42.6261868,12.6189942 C42.7488027,12.7915191 42.8720348,12.9393976 42.9955749,13.0626297 C43.118807,13.1861698 43.241731,13.2724322 43.3655792,13.321417 C43.6117353,13.321417 43.9198154,13.2416242 44.2898197,13.0811145 C44.6592078,12.9209128 45.0347575,12.7299031 45.4167769,12.5080854 C45.7987963,12.2862677 46.1564774,12.0644499 46.489204,11.8426322 C46.8219305,11.6208145 47.0865714,11.4609209 47.2840508,11.3620272 C48.1716297,10.9183917 49.1011076,10.4747563 50.075257,10.0311209 C51.0487904,9.58748544 52.0346469,9.18081962 53.0328266,8.81112343 C54.0310063,8.44142724 55.0479789,8.13334707 56.0828202,7.88688294 C57.1179695,7.6407269 58.153427,7.49284842 59.1882682,7.44324751 C59.237253,6.65487038 58.9969504,6.0938564 58.4676687,5.76112983 C57.9374628,5.42840326 57.3025096,5.26203997 56.5637333,5.26203997 C55.8240329,5.26203997 55.0781708,5.37294883 54.3270714,5.59476654 C53.5750477,5.81658426 52.8294937,6.0938564 52.0897932,6.42658298 C51.351017,6.75930955 50.6301094,7.12315222 49.9273786,7.51718675 C49.2252639,7.91183744 48.5650481,8.29354876 47.9495039,8.66324495 C47.8262719,8.71284586 47.5979845,8.82375472 47.2652579,8.99597153 C46.9331475,9.1688045 46.5569816,9.36566772 46.1383007,9.58748544 C45.7190036,9.80930315 45.2815297,10.0496057 44.825263,10.308393 C44.3693044,10.5671804 43.9503153,10.8074829 43.5682959,11.0293006 C43.1862765,11.2511183 42.8661813,11.4544512 42.6073939,11.6392993 C42.3486066,11.8241474 42.2065816,11.941526 42.1819352,11.9905107 L42.1819352,11.9905107 Z M6.61746945,8.14567028 C6.61746945,8.09668553 6.56201502,8.07173104 6.45141424,8.07173104 L6.09989478,8.07173104 L5.74837531,8.07173104 C5.63777453,8.07173104 5.5823201,8.09668553 5.5823201,8.14567028 C5.5823201,8.21960952 5.63777453,8.26304882 5.74837531,8.27506395 C5.85990033,8.28769523 5.97666271,8.29354876 6.09989478,8.29354876 C6.19786427,8.29354876 6.296758,8.28769523 6.39595981,8.27506395 C6.4939293,8.26304882 6.56817662,8.23224081 6.61746945,8.1826399 L6.61746945,8.14567028 Z M3.99262647,8.1826399 C3.99262647,8.10870066 3.91868723,8.07173104 3.77080875,8.07173104 C3.64726861,8.07173104 3.58596066,8.10870066 3.58596066,8.1826399 C3.58596066,8.25657914 3.64726861,8.29354876 3.77080875,8.29354876 C3.91868723,8.29354876 3.99262647,8.25657914 3.99262647,8.1826399 L3.99262647,8.1826399 Z M2.18111512,9.18081962 C2.13151421,9.18081962 2.10101428,9.20577412 2.08869107,9.25475886 C2.07605978,9.30435977 2.07020626,9.35365259 2.07020626,9.40263734 C2.07020626,9.52617748 2.10717588,9.58748544 2.18111512,9.58748544 C2.30434718,9.58748544 2.36596322,9.52617748 2.36596322,9.40263734 C2.36596322,9.35365259 2.35333193,9.30435977 2.3289936,9.25475886 C2.30434718,9.20577412 2.25505436,9.18081962 2.18111512,9.18081962 L2.18111512,9.18081962 Z M50.0940499,16.1311081 C49.3543495,16.1311081 48.7129266,16.1126233 48.1716297,16.0759617 C47.6287925,16.038684 47.1179956,15.9644367 46.6370824,15.8538359 C46.1564774,15.7432351 45.662933,15.5830335 45.1579896,15.3729228 C44.6527381,15.1643525 44.0550626,14.8867723 43.3655792,14.5414144 L42.9589134,14.5414144 C41.1843717,15.3304077 39.3660825,15.9893912 37.5055864,16.5192891 C35.6444742,17.049495 33.7772003,17.3141359 31.9046891,17.3141359 C29.7847895,17.3141359 27.7021676,17.2281815 25.6571315,17.0553486 C23.610555,16.8834398 21.6024885,16.5134355 19.6307755,15.94626 C18.2998692,15.5522254 17.0247254,15.0281811 15.8044199,14.3750511 C14.5847305,13.7222293 13.364425,13.0872761 12.1441195,12.4711157 C10.9244301,11.8552635 9.66746305,11.319204 8.37383445,10.8629373 C7.07958969,10.4072867 5.69322896,10.1789993 4.21475227,10.1789993 C3.69656143,10.1789993 3.26524921,10.185161 2.92050751,10.1974842 C2.57514965,10.2101154 2.26090788,10.2655699 1.97778221,10.3638474 C1.69434846,10.4624331 1.41676824,10.6226348 1.14596578,10.8444525 C0.874547155,11.0662702 0.566775073,11.3746585 0.221725292,11.768693 L-9.24240485e-05,11.768693 L-9.24240485e-05,11.1771791 C-9.24240485e-05,10.8814221 0.14162445,10.5302107 0.425058199,10.1235449 C0.708183867,9.7168791 1.04738013,9.32284458 1.44172273,8.9405171 C1.83575726,8.55880578 2.23656955,8.2260792 2.64323536,7.94233737 C3.04990118,7.65921171 3.36414294,7.49284842 3.58596066,7.44324751 L5.21231583,7.44324751 C6.34605082,7.44324751 7.30140741,7.61608048 8.07776941,7.96082218 C8.85413142,8.30618004 9.56887739,8.74365387 10.2223154,9.27324367 C10.8745211,9.80344963 11.5221056,10.3823323 12.1629124,11.0108158 C12.8037191,11.6392993 13.5677579,12.2249597 14.4547207,12.7668727 C15.7363341,13.6051588 17.0921949,14.270612 18.5216869,14.7632322 C19.9508708,15.2564685 21.4173323,15.6320182 22.9210716,15.8908055 C24.4241947,16.1495929 25.9399491,16.3159562 27.4680267,16.3898954 C28.9964124,16.4638346 30.5241819,16.5008043 32.0525676,16.5008043 C33.7531701,16.5008043 35.5215502,16.2971633 37.3580161,15.8908055 C39.1932496,15.4841397 40.8516451,14.8498027 42.3301218,13.9865621 C42.0587032,13.7407141 41.8245622,13.4634419 41.627699,13.1550537 C41.4305277,12.8472816 41.147094,12.5946559 40.7777058,12.3971765 C39.6686173,12.6685951 38.6756749,12.8904128 37.8013434,13.0626297 C36.9260877,13.2351545 35.9343776,13.321417 34.825289,13.321417 C34.2337751,13.321417 33.5618523,13.2785939 32.8101367,13.1920233 C32.0587292,13.1057609 31.3504529,12.933236 30.6849998,12.6744487 C30.0195466,12.4156613 29.4585326,12.0524348 29.002574,11.5838449 C28.5463073,11.1158711 28.3183279,10.5117259 28.3183279,9.77233353 C28.3183279,8.88506267 28.564484,8.13981676 29.0580284,7.53567156 C29.5506486,6.93183444 30.3023642,6.62991589 31.3131752,6.62991589 C31.8061035,6.62991589 32.1573148,6.80274886 32.3668094,7.14749056 C32.5763039,7.49284842 32.680743,7.89951423 32.680743,8.367488 C32.680743,8.51536647 32.6748895,8.68819945 32.6628744,8.88506267 C32.6502431,9.08254205 32.6194351,9.26092047 32.5701423,9.42112215 C32.5208494,9.58163191 32.4469102,9.7168791 32.3480165,9.82778796 C32.2494308,9.93869682 32.1018604,9.99415125 31.9046891,9.99415125 C31.7072097,9.99415125 31.5593312,9.97566644 31.4610537,9.93869682 C31.362468,9.9017272 31.3131752,9.78496482 31.3131752,9.58748544 C31.3131752,9.48920787 31.3439832,9.39678382 31.4059073,9.31021329 C31.4665991,9.22395085 31.535301,9.13183488 31.6092402,9.03294115 C31.6831795,8.93466357 31.750649,8.81759311 31.8125731,8.68172976 C31.8732649,8.54648257 31.9046891,8.38011928 31.9046891,8.1826399 C31.8800427,8.15830157 31.8732649,8.10870066 31.8858962,8.03476142 C31.8985275,7.96082218 31.9046891,7.87455974 31.9046891,7.77597409 C31.9046891,7.67769652 31.8800427,7.59112599 31.8307499,7.51718675 C31.781149,7.44324751 31.7072097,7.40627789 31.6092402,7.40627789 C30.8695398,7.40627789 30.3701418,7.56031797 30.1116626,7.86839814 C29.8528752,8.17678638 29.7234816,8.61395213 29.7234816,9.18081962 C29.7234816,9.99415125 29.8833752,10.6226348 30.2040866,11.0662702 C30.5241819,11.5099056 30.9370093,11.8426322 31.4425689,12.0644499 C31.9475123,12.2862677 32.5146878,12.422131 33.1428633,12.4711157 C33.7716549,12.5207167 34.4059919,12.545055 35.0474148,12.545055 C35.4408332,12.545055 35.8789232,12.5392015 36.3598363,12.5265702 C36.8398252,12.5145551 37.3207384,12.483747 37.8013434,12.4341461 C38.2822565,12.3851614 38.7499222,12.2924293 39.206497,12.156874 C39.6621476,12.0216268 40.0620356,11.8426322 40.4073935,11.6208145 C40.2102222,10.9803158 40.0253741,10.4257716 39.8534654,9.95718163 C39.6806324,9.48920787 39.594678,8.89769395 39.594678,8.1826399 C39.594678,7.83759012 39.6371931,7.50517162 39.7240717,7.18446018 C39.8100261,6.86436489 39.9452732,6.57446146 40.1307375,6.31567412 C40.3155856,6.05688678 40.55558,5.84770036 40.8516451,5.68719059 C41.147094,5.52698891 41.5038508,5.44688806 41.9231479,5.44688806 C42.5639546,5.44688806 43.1061757,5.63173616 43.5504273,6.00143236 C43.9937547,6.37112855 44.2158804,6.8517336 44.2158804,7.44324751 L43.9570931,7.62809561 C43.7349673,7.62809561 43.5744576,7.54183316 43.47618,7.36930827 C43.3775943,7.19709146 43.2728471,7.01224337 43.1622463,6.81476398 C43.0510294,6.61759268 42.8969893,6.45122939 42.7001261,6.31567412 C42.5020305,6.18042693 42.1945665,6.16194212 41.7758856,6.26021969 C41.4551741,6.65487038 41.1775939,7.02456657 40.9437611,7.36930827 C40.709004,7.71466613 40.5928577,8.14567028 40.5928577,8.66324495 C40.5928577,8.73718419 40.616888,8.90970908 40.6661808,9.18081962 C40.7154737,9.45223825 40.7829432,9.73536391 40.8695137,10.0311209 C40.9557762,10.3268778 41.054978,10.5921348 41.1655788,10.8259677 C41.2764876,11.0604167 41.39325,11.1771791 41.5170982,11.1771791 C41.9357792,11.1771791 42.3726368,11.084755 42.8295197,10.8999069 C43.2848622,10.7150588 43.7349673,10.4873876 44.1786027,10.215969 C44.6225463,9.9451665 45.0412272,9.66789436 45.4355698,9.38415253 C45.8296043,9.10102686 46.1869773,8.86072434 46.5076888,8.66324495 C47.4439444,8.07173104 48.3869778,7.51718675 49.3358647,6.99961208 C50.2841354,6.48203741 51.2582849,6.03254845 52.2564646,5.65022097 C53.2549524,5.26850965 54.2959553,4.9727527 55.3807055,4.76295011 C56.4645315,4.55376368 57.5985746,4.44870834 58.7816024,4.44870834 C59.1263441,4.44870834 59.4590707,4.52264758 59.7797821,4.67052606 C60.0998774,4.81840454 60.3774576,5.00972232 60.6115986,5.24355516 C60.8454314,5.47800416 61.0367492,5.75527631 61.1849357,6.07537159 C61.3321981,6.39608304 61.4064454,6.74082474 61.4064454,7.11052094 C61.4064454,7.16012184 61.4002838,7.21557627 61.3882687,7.27688422 C61.3750212,7.33880834 61.3694758,7.39395469 61.3694758,7.44324751 C61.7638184,7.49284842 62.281085,7.55415637 62.9221998,7.62809561 C63.5630065,7.70203485 64.2096668,7.82557499 64.8631048,7.9977918 C65.5159267,8.17031669 66.1074406,8.4109273 66.6376465,8.71869938 C67.1672363,9.02708762 67.5064326,9.45223825 67.6546191,9.99415125 C67.6546191,10.6596044 67.6047102,11.2945576 67.5064326,11.8980866 C67.4078469,12.5022318 67.235322,13.02566 66.989166,13.4692955 C66.7423938,13.9129309 66.4028894,14.270612 65.9721934,14.5414144 C65.5408812,14.8128331 64.9924985,14.9480802 64.3270453,14.9480802 C63.8584554,14.9480802 63.4394664,14.9295954 63.0700783,14.8926258 C62.7006901,14.8556562 62.5152259,14.6030305 62.5152259,14.1347486 C62.6141196,14.1107184 62.8048212,14.1227335 63.0888711,14.1717182 C63.3716887,14.2213191 63.6489609,14.2826271 63.9203795,14.3568744 C64.1665356,14.3568744 64.4376461,14.3192886 64.7337111,14.2456575 C65.02916,14.1717182 65.3067402,14.0608094 65.5655276,13.9129309 C65.8240068,13.7653605 66.0396629,13.5743508 66.2121878,13.3399018 C66.3850208,13.1057609 66.4715913,12.8408119 66.4715913,12.545055 L66.4715913,10.3638474 C66.2734958,10.1916306 66.0889558,10.0187977 65.9167389,9.84627277 C65.7688605,9.69839429 65.6206739,9.55051582 65.4734116,9.40263734 C65.325225,9.25475886 65.2013768,9.11951167 65.1034073,8.99597153 C64.5858327,8.57729059 64.0251268,8.367488 63.4215977,8.367488 L61.3694758,8.367488 C61.0737188,9.37829901 60.6608914,10.2224386 60.1313016,10.8999069 C59.6004795,11.5779914 59.0037282,12.1753588 58.3382751,12.6929335 C57.6725138,13.2105081 56.9519143,13.6852597 56.1755523,14.1159557 C55.3988822,14.5478841 54.6286818,15.0100044 53.8649511,15.5023165 C53.1255587,15.9219216 52.5340448,16.4823195 52.0897932,17.1847422 C51.6464659,17.887165 51.178184,18.5837342 50.6855638,19.2735257 C50.5127309,19.2735257 50.3707059,19.2799954 50.2601051,19.2920105 C50.1495044,19.3046418 50.0940499,19.2491874 50.0940499,19.1256472 L50.0940499,16.1311081 Z" id="Fill-1" fill="#5B5B5B" sketch:type="MSShapeGroup" mask="url(#mask-2)"></path>
        </g>
    </g>
</svg>